<svg width="34" height="36" viewBox="0 0 34 36" fill="none" xmlns="http://www.w3.org/2000/svg">
<g clip-path="url(#clip0_160_333)">
<path d="M19.84 3.54001C19.48 3.18001 19.01 2.99001 18.51 2.99001C18.01 2.99001 17.53 3.19001 17.18 3.54001C16.82 3.90001 16.63 4.37001 16.63 4.87001C16.63 5.37001 16.83 5.85001 17.18 6.20001C17.54 6.56001 18.01 6.75001 18.51 6.75001C19.01 6.75001 19.49 6.55001 19.84 6.20001C20.57 5.47001 20.57 4.27001 19.84 3.54001ZM19.36 5.72001C19.13 5.95001 18.83 6.07001 18.51 6.07001C18.19 6.07001 17.89 5.95001 17.66 5.72001C17.43 5.49001 17.31 5.19001 17.31 4.87001C17.31 4.55001 17.43 4.25001 17.66 4.02001C17.89 3.79001 18.19 3.67001 18.51 3.67001C18.83 3.67001 19.13 3.79001 19.36 4.02001C19.59 4.25001 19.71 4.55001 19.71 4.87001C19.71 5.19001 19.59 5.49001 19.36 5.72001Z" fill="white"/>
<path d="M21.33 2.06C20.14 0.870003 18.57 0.150003 16.9 0.0200028C15.25 -0.109997 13.61 0.350003 12.27 1.31C12.12 1.42 12.08 1.63 12.19 1.79C12.3 1.94 12.51 1.98 12.67 1.87C13.88 1 15.36 0.590003 16.85 0.710003C18.35 0.830003 19.77 1.48 20.84 2.55C23.31 5.02 23.31 9.04 20.84 11.51C19.64 12.71 18.05 13.37 16.36 13.37C15.33 13.37 14.33 13.12 13.44 12.66C13.44 12.66 13.44 12.66 13.43 12.66C13.08 12.48 12.74 12.26 12.43 12.01C12.43 12.01 12.43 12.01 12.42 12C12.3 11.91 12.19 11.81 12.08 11.71C12.07 11.7 12.06 11.69 12.05 11.68C12 11.63 11.94 11.58 11.89 11.53C11.84 11.48 11.79 11.43 11.74 11.38C11.73 11.37 11.72 11.36 11.71 11.35C11.67 11.3 11.62 11.25 11.58 11.21C11.56 11.19 11.55 11.17 11.53 11.16C11.5 11.12 11.47 11.09 11.44 11.05C11.41 11.02 11.39 10.98 11.36 10.95C11.34 10.93 11.33 10.91 11.31 10.88C10.58 9.91 10.14 8.76 10.05 7.54C9.94 6.05 10.36 4.56 11.23 3.35C11.34 3.2 11.31 2.98 11.15 2.87C11 2.76 10.78 2.79 10.67 2.95C9.7 4.29 9.23 5.94 9.36 7.59C9.43 8.46 9.65 9.31 10.03 10.09L0.25 19.82C0.12 19.95 0.05 20.12 0.05 20.3L0 22.67C0 22.86 0.07 23.04 0.2 23.18C0.33 23.31 0.51 23.39 0.7 23.39C0.7 23.39 0.7 23.39 0.71 23.39L3.08 23.34C3.26 23.34 3.43 23.26 3.56 23.14L4 22.7C4.1 22.6 4.17 22.47 4.19 22.32L4.47 20.67C4.47 20.67 4.47 20.66 4.48 20.66L6 20.4C6.29 20.35 6.52 20.12 6.57 19.83L6.83 18.31C6.83 18.31 6.83 18.3 6.84 18.3L8.49 18.02C8.63 18 8.76 17.93 8.87 17.83L9.61 17.09C9.74 16.96 9.74 16.74 9.61 16.61C9.48 16.48 9.26 16.48 9.13 16.61L8.39 17.35L6.74 17.63C6.45 17.68 6.22 17.91 6.17 18.2L5.91 19.72C5.91 19.72 5.91 19.73 5.9 19.73L4.38 19.99C4.09 20.04 3.86 20.27 3.81 20.56L3.53 22.21L3.09 22.65L0.72 22.7C0.72 22.7 0.72 22.7 0.71 22.7C0.71 22.7 0.71 22.7 0.71 22.69L0.73 21.85L11.02 11.56C11.02 11.56 11.04 11.58 11.05 11.6C11.07 11.62 11.09 11.65 11.11 11.67C11.13 11.69 11.15 11.71 11.16 11.73C11.19 11.76 11.21 11.79 11.24 11.82C11.25 11.84 11.27 11.85 11.28 11.87C11.32 11.92 11.37 11.96 11.41 12C11.46 12.05 11.5 12.09 11.55 12.14C11.56 12.15 11.58 12.16 11.59 12.18C11.63 12.21 11.66 12.25 11.7 12.28C11.71 12.29 11.73 12.3 11.74 12.31C11.78 12.34 11.82 12.38 11.86 12.41C11.86 12.41 11.88 12.43 11.89 12.43C12.15 12.65 12.43 12.85 12.72 13.03L10.68 15.07C10.55 15.2 10.55 15.42 10.68 15.55C10.81 15.68 11.03 15.68 11.16 15.55L13.35 13.36C14.28 13.81 15.31 14.04 16.38 14.04C18.26 14.04 20.02 13.31 21.35 11.98C24.09 9.24 24.09 4.79 21.35 2.05L21.33 2.06ZM10.58 11L0.72 20.85V20.32H0.73L10.36 10.69C10.43 10.8 10.5 10.91 10.57 11.01L10.58 11Z" fill="white"/>
</g>
<g clip-path="url(#clip1_160_333)">
<path d="M29.84 15.54C29.48 15.18 29.01 14.99 28.51 14.99C28.01 14.99 27.53 15.19 27.18 15.54C26.82 15.9 26.63 16.37 26.63 16.87C26.63 17.37 26.83 17.85 27.18 18.2C27.54 18.56 28.01 18.75 28.51 18.75C29.01 18.75 29.49 18.55 29.84 18.2C30.57 17.47 30.57 16.27 29.84 15.54ZM29.36 17.72C29.13 17.95 28.83 18.07 28.51 18.07C28.19 18.07 27.89 17.95 27.66 17.72C27.43 17.49 27.31 17.19 27.31 16.87C27.31 16.55 27.43 16.25 27.66 16.02C27.89 15.79 28.19 15.67 28.51 15.67C28.83 15.67 29.13 15.79 29.36 16.02C29.59 16.25 29.71 16.55 29.71 16.87C29.71 17.19 29.59 17.49 29.36 17.72Z" fill="white"/>
<path d="M31.33 14.06C30.14 12.87 28.57 12.15 26.9 12.02C25.25 11.89 23.61 12.35 22.27 13.31C22.12 13.42 22.08 13.63 22.19 13.79C22.3 13.94 22.51 13.98 22.67 13.87C23.88 13 25.36 12.59 26.85 12.71C28.35 12.83 29.77 13.48 30.84 14.55C33.31 17.02 33.31 21.04 30.84 23.51C29.64 24.71 28.05 25.37 26.36 25.37C25.33 25.37 24.33 25.12 23.44 24.66C23.44 24.66 23.44 24.66 23.43 24.66C23.08 24.48 22.74 24.26 22.43 24.01C22.43 24.01 22.43 24.01 22.42 24C22.3 23.91 22.19 23.81 22.08 23.71C22.07 23.7 22.06 23.69 22.05 23.68C22 23.63 21.94 23.58 21.89 23.53C21.84 23.48 21.79 23.43 21.74 23.38C21.73 23.37 21.72 23.36 21.71 23.35C21.67 23.3 21.62 23.25 21.58 23.21C21.56 23.19 21.55 23.17 21.53 23.16C21.5 23.12 21.47 23.09 21.44 23.05C21.41 23.02 21.39 22.98 21.36 22.95C21.34 22.93 21.33 22.91 21.31 22.88C20.58 21.91 20.14 20.76 20.05 19.54C19.94 18.05 20.36 16.56 21.23 15.35C21.34 15.2 21.31 14.98 21.15 14.87C21 14.76 20.78 14.79 20.67 14.95C19.7 16.29 19.23 17.94 19.36 19.59C19.43 20.46 19.65 21.31 20.03 22.09L10.25 31.82C10.12 31.95 10.05 32.12 10.05 32.3L10 34.67C10 34.86 10.07 35.04 10.2 35.18C10.33 35.31 10.51 35.39 10.7 35.39C10.7 35.39 10.7 35.39 10.71 35.39L13.08 35.34C13.26 35.34 13.43 35.26 13.56 35.14L14 34.7C14.1 34.6 14.17 34.47 14.19 34.32L14.47 32.67C14.47 32.67 14.47 32.66 14.48 32.66L16 32.4C16.29 32.35 16.52 32.12 16.57 31.83L16.83 30.31C16.83 30.31 16.83 30.3 16.84 30.3L18.49 30.02C18.63 30 18.76 29.93 18.87 29.83L19.61 29.09C19.74 28.96 19.74 28.74 19.61 28.61C19.48 28.48 19.26 28.48 19.13 28.61L18.39 29.35L16.74 29.63C16.45 29.68 16.22 29.91 16.17 30.2L15.91 31.72C15.91 31.72 15.91 31.73 15.9 31.73L14.38 31.99C14.09 32.04 13.86 32.27 13.81 32.56L13.53 34.21L13.09 34.65L10.72 34.7C10.72 34.7 10.72 34.7 10.71 34.7C10.71 34.7 10.71 34.7 10.71 34.69L10.73 33.85L21.02 23.56C21.02 23.56 21.04 23.58 21.05 23.6C21.07 23.62 21.09 23.65 21.11 23.67C21.13 23.69 21.15 23.71 21.16 23.73C21.19 23.76 21.21 23.79 21.24 23.82C21.25 23.84 21.27 23.85 21.28 23.87C21.32 23.92 21.37 23.96 21.41 24C21.46 24.05 21.5 24.09 21.55 24.14C21.56 24.15 21.58 24.16 21.59 24.18C21.63 24.21 21.66 24.25 21.7 24.28C21.71 24.29 21.73 24.3 21.74 24.31C21.78 24.34 21.82 24.38 21.86 24.41C21.86 24.41 21.88 24.43 21.89 24.43C22.15 24.65 22.43 24.85 22.72 25.03L20.68 27.07C20.55 27.2 20.55 27.42 20.68 27.55C20.81 27.68 21.03 27.68 21.16 27.55L23.35 25.36C24.28 25.81 25.31 26.04 26.38 26.04C28.26 26.04 30.02 25.31 31.35 23.98C34.09 21.24 34.09 16.79 31.35 14.05L31.33 14.06ZM20.58 23L10.72 32.85V32.32H10.73L20.36 22.69C20.43 22.8 20.5 22.91 20.57 23.01L20.58 23Z" fill="white"/>
</g>
<defs>
<clipPath id="clip0_160_333">
<rect width="23.38" height="23.38" fill="white"/>
</clipPath>
<clipPath id="clip1_160_333">
<rect width="23.38" height="23.38" fill="white" transform="translate(10 12)"/>
</clipPath>
</defs>
</svg>
