<svg width="27" height="19" viewBox="0 0 27 19" fill="none" xmlns="http://www.w3.org/2000/svg">
<g id="Layer_1" clip-path="url(#clip0_32_218)">
<path id="Vector" d="M26.6236 19H0.363462C0.155769 19 0 18.8392 0 18.6536V0.346354C0 0.160807 0.16875 0 0.363462 0H26.6236C26.8312 0 26.987 0.160807 26.987 0.346354V18.6413C26.987 18.8392 26.8183 18.9876 26.6236 18.9876V19ZM0.739904 18.2949H26.2601V0.705078H0.739904V18.2949Z" fill="white"/>
<path id="Vector_2" d="M13.5 12.2585C13.4092 12.2585 13.3183 12.2214 13.2534 12.1595L0.116854 0.60612C-0.025934 0.482422 -0.0389148 0.259766 0.103874 0.111328C0.233681 -0.0247395 0.467335 -0.0371093 0.623104 0.0989584L13.5 11.4421L26.377 0.0989584C26.5197 -0.0371093 26.7534 -0.0247395 26.8962 0.123698C27.039 0.259766 27.026 0.482422 26.8702 0.61849L13.7337 12.1842C13.6688 12.2461 13.5779 12.2832 13.487 12.2832L13.5 12.2585Z" fill="white"/>
</g>
<defs>
<clipPath id="clip0_32_218">
<rect width="27" height="19" fill="white"/>
</clipPath>
</defs>
</svg>
