<svg width="20" height="29" viewBox="0 0 20 29" fill="none" xmlns="http://www.w3.org/2000/svg">
<g id="Layer_1" clip-path="url(#clip0_32_236)">
<path id="Vector" fill-rule="evenodd" clip-rule="evenodd" d="M2.91 8.74H0.83C0.37 8.74 0 8.37 0 7.91V3.75C0 3.29 0.37 2.92 0.83 2.92H2.91V0.83C2.91 0.37 3.28 0 3.74 0C4.2 0 4.57 0.37 4.57 0.83V2.91H5.82C6.07 2.91 6.31 3.02 6.47 3.22L8.13 5.3C8.37 5.6 8.37 6.04 8.13 6.34L6.47 8.42C6.31 8.62 6.07 8.73 5.82 8.73H4.57V27.46C4.57 27.92 4.2 28.29 3.74 28.29C3.28 28.29 2.91 27.92 2.91 27.46V8.74ZM1.66 7.08H5.42L6.42 5.83L5.42 4.58H1.66V7.08ZM14.14 14.99C13.68 14.99 13.31 14.62 13.31 14.16C13.31 13.7 13.68 13.33 14.14 13.33H19.13C19.59 13.33 19.96 13.7 19.96 14.16C19.96 14.62 19.59 14.99 19.13 14.99H14.14ZM16.64 10.83C16.18 10.83 15.81 10.46 15.81 10C15.81 9.54 16.18 9.17 16.64 9.17H19.14C19.6 9.17 19.97 9.54 19.97 10C19.97 10.46 19.6 10.83 19.14 10.83H16.64ZM14.14 6.67C13.68 6.67 13.31 6.3 13.31 5.84C13.31 5.38 13.68 5.01 14.14 5.01H19.13C19.59 5.01 19.96 5.38 19.96 5.84C19.96 6.3 19.59 6.67 19.13 6.67H14.14ZM16.64 2.51C16.18 2.51 15.81 2.14 15.81 1.68C15.81 1.22 16.18 0.85 16.64 0.85H19.14C19.6 0.85 19.97 1.22 19.97 1.68C19.97 2.14 19.6 2.51 19.14 2.51H16.64ZM16.64 19.16C16.18 19.16 15.81 18.79 15.81 18.33C15.81 17.87 16.18 17.5 16.64 17.5H19.14C19.6 17.5 19.97 17.87 19.97 18.33C19.97 18.79 19.6 19.16 19.14 19.16H16.64ZM14.14 23.32C13.68 23.32 13.31 22.95 13.31 22.49C13.31 22.03 13.68 21.66 14.14 21.66H19.13C19.59 21.66 19.96 22.03 19.96 22.49C19.96 22.95 19.59 23.32 19.13 23.32H14.14ZM16.64 27.48C16.18 27.48 15.81 27.11 15.81 26.65C15.81 26.19 16.18 25.82 16.64 25.82H19.14C19.6 25.82 19.97 26.19 19.97 26.65C19.97 27.11 19.6 27.48 19.14 27.48H16.64Z" fill="white"/>
</g>
<defs>
<clipPath id="clip0_32_236">
<rect width="19.98" height="28.3" fill="white"/>
</clipPath>
</defs>
</svg>
