<svg width="19" height="30" viewBox="0 0 19 30" fill="none" xmlns="http://www.w3.org/2000/svg">
<g clip-path="url(#clip0_32_116)">
<path d="M9.32301 14.7211C5.23682 14.7211 1.91772 11.4188 1.91772 7.35323C1.91772 3.28767 5.23682 0 9.32301 0C13.4092 0 16.7283 3.30235 16.7283 7.36791C16.7283 11.4335 13.4092 14.7358 9.32301 14.7358V14.7211ZM9.32301 0.836595C5.70887 0.836595 2.75856 3.75734 2.75856 7.36791C2.75856 10.9785 5.70887 13.8992 9.32301 13.8992C12.9371 13.8992 15.8874 10.9638 15.8874 7.36791C15.8874 3.77202 12.9371 0.836595 9.32301 0.836595Z" fill="white"/>
<path d="M18.587 30H0.413043C0.177019 30 0 29.8092 0 29.589V23.3513C0 18.1409 4.2632 13.8992 9.5 13.8992C14.7368 13.8992 19 18.1409 19 23.3513V29.589C19 29.8239 18.8082 30 18.587 30ZM0.840838 29.1634H18.1739V23.3366C18.1739 18.5812 14.2795 14.7211 9.51475 14.7211C4.75 14.7211 0.840838 18.5959 0.840838 23.3513V29.1781V29.1634Z" fill="white"/>
</g>
<defs>
<clipPath id="clip0_32_116">
<rect width="19" height="30" fill="white"/>
</clipPath>
</defs>
</svg>
