<svg width="27" height="28" viewBox="0 0 27 28" fill="none" xmlns="http://www.w3.org/2000/svg">
<g id="Layer_1" clip-path="url(#clip0_32_221)">
<path id="Vector" d="M26.6812 21.8733C27.097 19.2257 27.1109 16.2871 26.7366 13.5703C26.6812 13.1545 26.6119 12.7525 26.5426 12.3644V12.3366C26.1545 10.2713 25.5308 8.48317 24.6853 6.98614C24.6853 6.98614 24.6714 6.95841 24.6576 6.94455C23.6319 5.26733 22.2597 3.85346 20.6103 2.74455C19.0718 1.70495 17.2977 0.956434 15.3573 0.499009C12.4327 -0.180199 8.95378 -0.138615 6.05696 0.637622C5.76589 0.720791 5.58571 1.01188 5.66887 1.30297C5.75203 1.59406 6.0431 1.77426 6.33417 1.69109C6.98561 1.52475 7.66476 1.38614 8.35778 1.28911C12.0169 2.02376 15.288 3.46535 17.8244 5.48911C19.7649 7.02772 21.1232 8.84356 21.6915 10.5624L14.2346 8.27525C12.6268 7.77624 11.2269 8.16435 10.3814 9.32871C9.34187 10.7703 9.46661 13.0436 10.6725 14.7347C13.2366 18.3109 16.1196 20.0851 25.1843 23.5644C25.0872 23.8832 24.9902 24.1743 24.9071 24.396C24.6853 24.798 23.0359 26.5446 21.8855 26.8772C21.6637 26.9465 21.4974 26.9327 21.3865 26.8772C21.3727 26.8772 21.3588 26.8634 21.3449 26.8495L19.0718 25.7129L14.1514 23.2594C12.8208 22.5941 9.6468 20.3762 6.76384 17.5208C4.39372 15.1782 1.58006 11.7683 1.53848 8.78812C1.77411 7.70693 2.13448 6.79208 2.63345 6.01584C2.75819 5.82178 2.74433 5.57228 2.61959 5.39208L1.38602 3.71485C1.85727 3.46535 2.32852 3.21584 2.88294 2.95247C3.16014 2.82772 3.27103 2.49505 3.14628 2.21782C3.02154 1.94059 2.68889 1.8297 2.41168 1.95445C1.62164 2.32871 0.970205 2.67525 0.304907 3.06337C0.166304 3.14653 0.0692811 3.27129 0.0415603 3.42376C0.0138396 3.57624 0.0415603 3.72871 0.138583 3.85346L1.52462 5.72475C1.05337 6.54257 0.692998 7.48515 0.457371 8.5802V8.60792C0.332628 9.20396 0.235606 9.82772 0.180164 10.5069C-2.07722e-05 12.6277 0.180164 14.8871 0.332628 16.703C0.332628 16.7307 0.332628 16.7584 0.332628 16.7723C0.40193 17.2713 0.706858 17.7148 1.15039 17.9505C1.05337 18.3525 1.08109 18.7822 1.21969 19.1842C1.41374 19.7663 1.82955 20.2376 2.3701 20.5148L16.2305 27.4455C16.5631 27.6119 16.9096 27.695 17.2561 27.695C17.9214 27.695 18.5729 27.404 19.0164 26.8772L20.846 27.7921C21.0677 27.9307 21.3311 28 21.6083 28C21.8023 28 21.9964 27.9723 22.2182 27.903C23.7567 27.4594 25.6417 25.4218 25.9189 24.8396C25.9189 24.8396 25.9189 24.8257 25.9189 24.8119C26.0713 24.4376 26.2377 23.8832 26.3901 23.3564C26.5564 22.7327 26.6812 22.1505 26.7089 21.8594L26.6812 21.8733ZM5.9738 18.2693C6.66682 18.9485 7.35984 19.6 8.06672 20.196L2.05131 17.1881L1.66322 16.9941C1.51076 16.9248 1.4276 16.7861 1.41374 16.6198C1.41374 16.6059 1.41374 16.5782 1.41374 16.5644C1.30285 15.1644 1.16425 13.5148 1.20583 11.8792C2.25922 14.2495 4.24125 16.5505 6.00152 18.2693H5.9738ZM16.6879 26.4752L2.82749 19.5307C2.53643 19.3921 2.32852 19.1426 2.2315 18.8376C2.18992 18.7129 2.17606 18.5881 2.17606 18.4634L17.9492 26.3505C17.6026 26.6139 17.1175 26.6693 16.7017 26.4614L16.6879 26.4752ZM18.5036 4.61584C16.6601 3.14653 14.4563 1.96832 12.0031 1.12277C13.0703 1.17822 14.1237 1.31683 15.1078 1.55247C17.7551 2.17624 21.4004 3.70099 23.7289 7.51287C23.7289 7.51287 23.7289 7.52673 23.7428 7.54059C24.3942 8.70495 24.9071 10.0911 25.2674 11.6436L22.9112 10.9228C22.4399 8.74653 20.8876 6.51485 18.4897 4.61584H18.5036ZM11.5457 14.0832C10.617 12.7802 10.4923 11.0059 11.2546 9.95247C11.809 9.17624 12.7515 8.95445 13.9019 9.30099L15.6068 9.82772L14.5256 17.202C13.3059 16.2733 12.405 15.2891 11.5457 14.0832ZM15.5236 17.9089L16.6601 10.1465L25.5031 12.8634C25.5446 13.1406 25.6001 13.4178 25.6417 13.7089C26.002 16.3148 25.9882 19.1564 25.5862 21.6931C25.5862 21.6931 25.5862 21.6931 25.5862 21.7069C25.5724 21.8594 25.5169 22.1505 25.4338 22.4693C20.6381 20.6257 17.6442 19.2812 15.5236 17.895V17.9089Z" fill="white"/>
</g>
<defs>
<clipPath id="clip0_32_221">
<rect width="27" height="28" fill="white"/>
</clipPath>
</defs>
</svg>
