<svg width="31" height="31" viewBox="0 0 31 31" fill="none" xmlns="http://www.w3.org/2000/svg">
<g id="Layer_1" clip-path="url(#clip0_32_227)">
<path id="Vector" d="M26.3063 4.69376C25.8289 4.21643 25.2057 3.9645 24.5428 3.9645C23.8798 3.9645 23.2434 4.22968 22.7793 4.69376C22.302 5.17109 22.05 5.79427 22.05 6.45723C22.05 7.12019 22.3152 7.75663 22.7793 8.2207C23.2566 8.69803 23.8798 8.94996 24.5428 8.94996C25.2057 8.94996 25.8422 8.68477 26.3063 8.2207C27.2742 7.25278 27.2742 5.66168 26.3063 4.69376ZM25.6698 7.58426C25.3648 7.88922 24.9671 8.04833 24.5428 8.04833C24.1185 8.04833 23.7207 7.88922 23.4157 7.58426C23.1108 7.2793 22.9517 6.88152 22.9517 6.45723C22.9517 6.03293 23.1108 5.63516 23.4157 5.3302C23.7207 5.02524 24.1185 4.86613 24.5428 4.86613C24.9671 4.86613 25.3648 5.02524 25.6698 5.3302C25.9748 5.63516 26.1339 6.03293 26.1339 6.45723C26.1339 6.88152 25.9748 7.2793 25.6698 7.58426Z" fill="white"/>
<path id="Vector_2" d="M28.2819 2.73139C26.704 1.15355 24.6223 0.198887 22.408 0.0265178C20.2203 -0.145852 18.0458 0.464071 16.269 1.73695C16.0701 1.88281 16.0171 2.16125 16.163 2.3734C16.3088 2.57228 16.5873 2.62532 16.7994 2.47947C18.4038 1.32592 20.3661 0.782292 22.3417 0.941402C24.3306 1.10051 26.2134 1.96236 27.6322 3.38109C30.9072 6.65612 30.9072 11.9863 27.6322 15.2613C26.0411 16.8524 23.9328 17.7275 21.692 17.7275C20.3263 17.7275 19.0004 17.3961 17.8204 16.7861C17.8204 16.7861 17.8204 16.7861 17.8071 16.7861C17.343 16.5475 16.8922 16.2558 16.4812 15.9243C16.4812 15.9243 16.4812 15.9243 16.4679 15.911C16.3088 15.7917 16.163 15.6591 16.0171 15.5265C16.0038 15.5133 15.9906 15.5 15.9773 15.4867C15.911 15.4204 15.8315 15.3541 15.7652 15.2879C15.6989 15.2216 15.6326 15.1553 15.5663 15.089C15.553 15.0757 15.5398 15.0624 15.5265 15.0492C15.4735 14.9829 15.4072 14.9166 15.3541 14.8636C15.3276 14.837 15.3144 14.8105 15.2879 14.7973C15.2481 14.7442 15.2083 14.7044 15.1685 14.6514C15.1287 14.6116 15.1022 14.5586 15.0624 14.5188C15.0359 14.4923 15.0227 14.4658 14.9962 14.426C14.0282 13.1399 13.4448 11.6151 13.3255 9.99743C13.1796 8.02181 13.7365 6.04619 14.8901 4.44183C15.0359 4.24294 14.9962 3.95124 14.784 3.80539C14.5851 3.65954 14.2934 3.69932 14.1476 3.91146C12.8614 5.68819 12.2382 7.87596 12.4106 10.0637C12.5034 11.2173 12.7951 12.3443 13.299 13.3785L0.33148 26.2797C0.15911 26.4521 0.066296 26.6775 0.066296 26.9162L0 30.0586C0 30.3105 0.0928144 30.5492 0.265184 30.7348C0.437553 30.9072 0.676219 31.0133 0.928144 31.0133C0.928144 31.0133 0.928144 31.0133 0.941403 31.0133L4.08383 30.947C4.3225 30.947 4.5479 30.8409 4.72027 30.6818L5.30368 30.0984C5.43627 29.9658 5.52909 29.7934 5.5556 29.5945L5.92686 27.4068C5.92686 27.4068 5.92686 27.3935 5.94012 27.3935L7.95552 27.0488C8.34003 26.9825 8.645 26.6775 8.71129 26.293L9.05603 24.2776C9.05603 24.2776 9.05603 24.2643 9.06929 24.2643L11.2571 23.8931C11.4427 23.8666 11.6151 23.7737 11.7609 23.6411L12.7421 22.66C12.9145 22.4876 12.9145 22.1959 12.7421 22.0235C12.5697 21.8512 12.278 21.8512 12.1056 22.0235L11.1245 23.0047L8.9367 23.376C8.55218 23.4423 8.24722 23.7472 8.18092 24.1317L7.83618 26.1471C7.83618 26.1471 7.83618 26.1604 7.82293 26.1604L5.80753 26.5051C5.42301 26.5714 5.11805 26.8764 5.05175 27.2609L4.6805 29.4487L4.09709 30.0321L0.954662 30.0984C0.954662 30.0984 0.954662 30.0984 0.941403 30.0984C0.941403 30.0984 0.941403 30.0984 0.941403 30.0851L0.967921 28.9713L14.6116 15.3276C14.6116 15.3276 14.6382 15.3541 14.6514 15.3807C14.6779 15.4072 14.7044 15.447 14.731 15.4735C14.7575 15.5 14.784 15.5265 14.7973 15.553C14.837 15.5928 14.8636 15.6326 14.9033 15.6724C14.9166 15.6989 14.9431 15.7121 14.9564 15.7387C15.0094 15.805 15.0757 15.858 15.1287 15.911C15.195 15.9773 15.2481 16.0304 15.3144 16.0967C15.3276 16.1099 15.3541 16.1232 15.3674 16.1497C15.4204 16.1895 15.4602 16.2425 15.5133 16.2823C15.5265 16.2956 15.553 16.3088 15.5663 16.3221C15.6193 16.3618 15.6724 16.4149 15.7254 16.4547C15.7254 16.4547 15.7519 16.4812 15.7652 16.4812C16.1099 16.7729 16.4812 17.0381 16.8657 17.2767L14.1608 19.9816C13.9885 20.154 13.9885 20.4457 14.1608 20.618C14.3332 20.7904 14.6249 20.7904 14.7973 20.618L17.701 17.7143C18.9341 18.3109 20.2998 18.6159 21.7186 18.6159C24.2113 18.6159 26.5449 17.648 28.3084 15.8845C31.9414 12.2515 31.9414 6.35115 28.3084 2.71813L28.2819 2.73139ZM14.0282 14.5851L0.954662 27.6454V26.9427H0.967921L13.7365 14.1741C13.8293 14.3199 13.9222 14.4658 14.015 14.5984L14.0282 14.5851Z" fill="white"/>
</g>
<defs>
<clipPath id="clip0_32_227">
<rect width="31" height="31" fill="white"/>
</clipPath>
</defs>
</svg>
