<?xml version="1.0" encoding="utf-8"?>
<!-- Generator: Adobe Illustrator 27.7.0, SVG Export Plug-In . SVG Version: 6.00 Build 0)  -->
<svg version="1.1" id="Layer_1" xmlns="http://www.w3.org/2000/svg" xmlns:xlink="http://www.w3.org/1999/xlink" x="0px" y="0px"
	 viewBox="0 0 512 512" style="enable-background:new 0 0 512 512;" xml:space="preserve">
<style type="text/css">
	.st0{fill:#E2E2E2;}
</style>
<g id="Burger_Menu">
	<path class="st0" d="M424,168H88c-13.6,0-24-10.4-24-24s10.4-24,24-24h336c13.6,0,24,10.4,24,24S437.6,168,424,168z"/>
	<path class="st0" d="M424,280H88c-13.6,0-24-10.4-24-24s10.4-24,24-24h336c13.6,0,24,10.4,24,24S437.6,280,424,280z"/>
	<path class="st0" d="M424,392H88c-13.6,0-24-10.4-24-24s10.4-24,24-24h336c13.6,0,24,10.4,24,24S437.6,392,424,392z"/>
</g>
</svg>
