<svg width="389" height="193" viewBox="0 0 389 193" fill="none" xmlns="http://www.w3.org/2000/svg">
<g clip-path="url(#clip0_44_2120)">
<path d="M65.1983 178.039L70.2234 185.015H70.2627V178.039H73.1729V190.731H70.8654L65.6833 183.502H65.6441V190.731H62.7339V178.039H65.1983Z" fill="white"/>
<path d="M84.7995 187.052C84.7995 189.125 83.1696 190.927 79.9884 190.927C76.8071 190.927 75.2129 189.125 75.2129 187.052V184.552C75.2129 182.48 76.8249 180.656 79.9884 180.656C83.1518 180.656 84.7995 182.419 84.7995 184.552V187.052ZM78.2586 186.896C78.2586 188.135 78.84 188.755 79.9848 188.755C81.2081 188.755 81.7502 188.135 81.7502 186.896V184.705C81.7502 183.466 81.2081 182.807 79.9848 182.807C78.7615 182.807 78.2586 183.466 78.2586 184.705V186.896Z" fill="white"/>
<path d="M97.6458 183.584C97.3534 183.409 96.9468 183.313 96.5581 183.313C95.1992 183.313 94.5216 184.146 94.2862 185.542V190.735H91.2405V180.831H93.9011L94.0187 182.38H94.058C94.7178 181.119 95.5702 180.656 96.6972 180.656C97.1644 180.656 97.628 180.774 97.9383 180.948L97.6458 183.584Z" fill="white"/>
<path d="M108.399 187.052C108.399 189.125 106.769 190.927 103.587 190.927C100.406 190.927 98.812 189.125 98.812 187.052V184.552C98.812 182.48 100.424 180.656 103.587 180.656C106.751 180.656 108.399 182.419 108.399 184.552V187.052ZM101.858 186.896C101.858 188.135 102.439 188.755 103.584 188.755C104.807 188.755 105.349 188.135 105.349 186.896V184.705C105.349 183.466 104.807 182.807 103.584 182.807C102.361 182.807 101.858 183.466 101.858 184.705V186.896Z" fill="white"/>
<path d="M116.552 180.831H119.597V190.735H116.862L116.766 189.823H116.726C115.931 190.578 114.922 190.927 113.681 190.927C111.373 190.927 110.089 189.3 110.089 186.782V180.831H113.156V186.8C113.156 188.039 113.681 188.623 114.729 188.623C115.564 188.623 116.206 188.274 116.555 187.79V180.834L116.552 180.831Z" fill="white"/>
<path d="M127.69 183.349H125.343V187.476C125.343 188.327 125.846 188.737 126.663 188.737C126.934 188.737 127.226 188.698 127.497 188.619L127.69 190.439C127.087 190.71 126.352 190.885 125.518 190.885C123.15 190.885 122.297 189.624 122.297 187.32V183.502L121.035 183.096V181.254L122.49 181.119L123.246 178.95H125.343V181.219H127.69V183.352V183.349Z" fill="white"/>
<path d="M132.077 186.294V186.857C132.077 188.117 132.736 188.755 133.999 188.755C134.912 188.755 135.475 188.406 135.921 187.572L138.018 188.388C137.319 190.073 135.982 190.906 133.631 190.906C130.682 190.906 129.031 189.2 129.031 186.971V184.527C129.031 182.472 130.564 180.653 133.592 180.653C136.445 180.653 138.018 182.494 138.018 184.663V186.29H132.08L132.077 186.294ZM132.077 184.723H135.336V184.296C135.336 183.306 134.755 182.765 133.706 182.765C132.562 182.765 132.077 183.327 132.077 184.335V184.723Z" fill="white"/>
<path d="M145.682 183.658C145.215 182.903 144.441 182.651 143.646 182.651C142.733 182.651 142.344 182.978 142.344 183.466C142.344 184.901 147.487 184.26 147.487 187.711C147.487 189.513 145.818 190.927 143.45 190.927C141.51 190.927 140.19 190.251 139.277 188.776L141.064 187.729C141.606 188.545 142.558 188.929 143.354 188.929C144.227 188.929 144.634 188.602 144.634 188.018C144.634 186.486 139.473 187.184 139.473 183.737C139.473 182.031 140.911 180.656 143.528 180.656C145.351 180.656 146.613 181.372 147.409 182.825L145.682 183.658Z" fill="white"/>
<path d="M153.6 182.982C154.474 181.568 155.811 180.638 157.851 180.638C160.761 180.638 161.867 182.323 161.867 184.264V188.392C161.867 188.798 162.081 189.05 162.545 189.05H162.816V190.639C162.409 190.756 161.924 190.852 161.439 190.852C160.333 190.852 159.674 190.486 159.285 189.962C158.49 190.621 157.537 190.913 156.392 190.913C154.395 190.913 153.229 189.77 153.229 188.124C153.229 186.479 154.256 184.887 158.14 184.887H158.818V184.267C158.818 183.22 158.333 182.832 157.363 182.832C156.606 182.832 155.847 183.22 155.344 184.032L153.596 182.985L153.6 182.982ZM158.821 188.388V186.721H158.122C156.589 186.721 156.143 187.206 156.143 187.921C156.143 188.716 156.549 188.986 157.248 188.986C157.947 188.986 158.411 188.755 158.821 188.384V188.388Z" fill="white"/>
<path d="M170.098 190.731H166.703L162.766 180.827H166.279L168.393 188.153H168.433L170.569 180.827H174.061L170.102 190.731H170.098Z" fill="white"/>
<path d="M174.774 182.982C175.648 181.568 176.985 180.638 179.025 180.638C181.935 180.638 183.041 182.323 183.041 184.264V188.392C183.041 188.798 183.255 189.05 183.719 189.05H183.99V190.639C183.583 190.756 183.098 190.852 182.613 190.852C181.507 190.852 180.848 190.486 180.459 189.962C179.664 190.621 178.711 190.913 177.567 190.913C175.569 190.913 174.403 189.77 174.403 188.124C174.403 186.479 175.43 184.887 179.314 184.887H179.992V184.267C179.992 183.22 179.507 182.832 178.537 182.832C177.781 182.832 177.021 183.22 176.518 184.032L174.77 182.985L174.774 182.982ZM179.995 188.388V186.721H179.296C177.763 186.721 177.317 187.206 177.317 187.921C177.317 188.716 177.723 188.986 178.422 188.986C179.121 188.986 179.585 188.755 179.995 188.384V188.388Z" fill="white"/>
<path d="M188.69 181.219V190.735H185.645V181.219H188.69ZM188.458 178.042V180.097H185.876V178.042H188.458Z" fill="white"/>
<path d="M194.493 178.039V190.731H191.426V178.039H194.493Z" fill="white"/>
<path d="M196.918 182.982C197.792 181.568 199.129 180.638 201.169 180.638C204.079 180.638 205.185 182.323 205.185 184.264V188.392C205.185 188.798 205.399 189.05 205.863 189.05H206.134V190.639C205.727 190.756 205.242 190.852 204.757 190.852C203.651 190.852 202.992 190.486 202.603 189.962C201.808 190.621 200.855 190.913 199.711 190.913C197.713 190.913 196.547 189.77 196.547 188.124C196.547 186.479 197.574 184.887 201.458 184.887H202.136V184.267C202.136 183.22 201.651 182.832 200.681 182.832C199.925 182.832 199.165 183.22 198.662 184.032L196.914 182.985L196.918 182.982ZM202.139 188.388V186.721H201.44C199.907 186.721 199.461 187.206 199.461 187.921C199.461 188.716 199.867 188.986 200.567 188.986C201.266 188.986 201.729 188.755 202.139 188.384V188.388Z" fill="white"/>
<path d="M210.524 189.88H210.485L210.389 190.731H207.692V178.039H210.738V181.625H210.777C211.516 180.966 212.446 180.656 213.609 180.656C215.92 180.656 217.201 182.284 217.201 184.802V186.739C217.201 189.239 215.92 190.867 213.359 190.867C212.311 190.867 211.323 190.575 210.528 189.877L210.524 189.88ZM210.738 187.825C211.127 188.331 211.669 188.619 212.486 188.619C213.573 188.619 214.133 188.078 214.133 186.76V184.88C214.133 183.619 213.609 183.039 212.561 183.039C211.726 183.039 211.088 183.406 210.738 183.89V187.825Z" fill="white"/>
<path d="M222.422 178.039V190.731H219.354V178.039H222.422Z" fill="white"/>
<path d="M227.622 186.294V186.857C227.622 188.117 228.281 188.755 229.544 188.755C230.457 188.755 231.021 188.406 231.466 187.572L233.563 188.388C232.864 190.073 231.527 190.906 229.177 190.906C226.227 190.906 224.576 189.2 224.576 186.971V184.527C224.576 182.472 226.109 180.653 229.137 180.653C231.991 180.653 233.563 182.494 233.563 184.663V186.29H227.625L227.622 186.294ZM227.622 184.723H230.881V184.296C230.881 183.306 230.3 182.765 229.252 182.765C228.107 182.765 227.622 183.327 227.622 184.335V184.723Z" fill="white"/>
<path d="M245.671 183.349H243.325V187.476C243.325 188.327 243.828 188.737 244.644 188.737C244.915 188.737 245.208 188.698 245.479 188.619L245.671 190.439C245.069 190.71 244.334 190.885 243.499 190.885C241.131 190.885 240.279 189.624 240.279 187.32V183.502L239.016 183.096V181.254L240.471 181.119L241.228 178.95H243.325V181.219H245.671V183.352V183.349Z" fill="white"/>
<path d="M256.599 187.052C256.599 189.125 254.969 190.927 251.788 190.927C248.607 190.927 247.012 189.125 247.012 187.052V184.552C247.012 182.48 248.624 180.656 251.788 180.656C254.951 180.656 256.599 182.419 256.599 184.552V187.052ZM250.058 186.896C250.058 188.135 250.64 188.755 251.784 188.755C253.008 188.755 253.55 188.135 253.55 186.896V184.705C253.55 183.466 253.008 182.807 251.784 182.807C250.561 182.807 250.058 183.466 250.058 184.705V186.896Z" fill="white"/>
<path d="M269.057 181.45H269.096V178.039H272.142V190.731H269.406L269.31 189.82H269.271C268.475 190.575 267.466 190.924 266.225 190.924C263.914 190.924 262.634 189.296 262.634 186.778V184.784C262.634 182.284 263.914 180.638 266.457 180.638C267.409 180.638 268.318 180.891 269.057 181.454V181.45ZM269.096 183.815C268.729 183.309 268.165 183 267.348 183C266.261 183 265.679 183.541 265.679 184.88V186.8C265.679 188.039 266.204 188.641 267.27 188.641C268.087 188.641 268.725 188.274 269.092 187.79V183.819L269.096 183.815Z" fill="white"/>
<path d="M277.773 181.219V190.735H274.727V181.219H277.773ZM277.541 178.042V180.097H274.959V178.042H277.541Z" fill="white"/>
<path d="M286.118 183.658C285.651 182.903 284.877 182.651 284.082 182.651C283.169 182.651 282.78 182.978 282.78 183.466C282.78 184.901 287.923 184.26 287.923 187.711C287.923 189.513 286.254 190.927 283.886 190.927C281.946 190.927 280.626 190.251 279.713 188.776L281.5 187.729C282.042 188.545 282.994 188.929 283.79 188.929C284.663 188.929 285.07 188.602 285.07 188.018C285.07 186.486 279.909 187.184 279.909 183.737C279.909 182.031 281.347 180.656 283.964 180.656C285.787 180.656 287.049 181.372 287.845 182.825L286.118 183.658Z" fill="white"/>
<path d="M292.734 190.076H292.695V192.925H289.649V180.834H292.385L292.463 181.803H292.503C293.298 181.027 294.307 180.66 295.57 180.66C297.881 180.66 299.161 182.287 299.161 184.805V186.743C299.161 189.243 297.881 190.87 295.338 190.87C294.368 190.87 293.455 190.639 292.738 190.076H292.734ZM292.695 187.807C293.063 188.292 293.608 188.623 294.443 188.623C295.548 188.623 296.112 188.082 296.112 186.764V184.884C296.112 183.623 295.588 183.042 294.521 183.042C293.704 183.042 293.066 183.409 292.695 183.893V187.807Z" fill="white"/>
<path d="M304.379 178.039V190.731H301.312V178.039H304.379Z" fill="white"/>
<path d="M306.807 182.982C307.681 181.568 309.019 180.638 311.059 180.638C313.969 180.638 315.074 182.323 315.074 184.264V188.392C315.074 188.798 315.288 189.05 315.752 189.05H316.023V190.639C315.617 190.756 315.132 190.852 314.647 190.852C313.541 190.852 312.881 190.486 312.492 189.962C311.697 190.621 310.745 190.913 309.6 190.913C307.603 190.913 306.437 189.77 306.437 188.124C306.437 186.479 307.464 184.887 311.348 184.887H312.025V184.267C312.025 183.22 311.54 182.832 310.57 182.832C309.814 182.832 309.054 183.22 308.551 184.032L306.804 182.985L306.807 182.982ZM312.029 188.388V186.721H311.33C309.796 186.721 309.35 187.206 309.35 187.921C309.35 188.716 309.757 188.986 310.456 188.986C311.155 188.986 311.619 188.755 312.029 188.384V188.388Z" fill="white"/>
<path d="M323.245 189.727C322.197 192.053 320.82 192.925 318.259 193.004L318.085 191.009C319.308 190.892 319.968 190.543 320.392 189.556L320.449 189.421L316.023 180.838H319.44L321.961 186.768L324.058 180.838H327.24L323.242 189.734L323.245 189.727Z" fill="white"/>
<path d="M268.443 160.68H120.411C114.497 160.68 109.205 157.628 106.248 152.514C103.292 147.4 103.292 141.295 106.248 136.185L180.263 8.16632C183.219 3.05213 188.512 0 194.425 0C200.338 0 205.631 3.05213 208.588 8.16632L282.606 136.185C285.562 141.299 285.562 147.403 282.606 152.514C279.649 157.628 274.356 160.68 268.443 160.68ZM194.425 1.42456C189.029 1.42456 184.197 4.20959 181.497 8.8786L107.479 136.897C104.779 141.563 104.779 147.136 107.479 151.802C110.175 156.467 115.007 159.256 120.407 159.256H268.44C273.836 159.256 278.668 156.471 281.368 151.802C284.068 147.136 284.068 141.563 281.368 136.897L207.354 8.8786C204.657 4.21315 199.825 1.42456 194.425 1.42456Z" fill="white"/>
<path d="M194.425 145.772C189.525 145.772 185.534 141.79 185.534 136.894C185.534 131.997 189.521 128.015 194.425 128.015C199.329 128.015 203.316 131.997 203.316 136.894C203.316 141.79 199.329 145.772 194.425 145.772ZM194.425 129.443C190.309 129.443 186.961 132.787 186.961 136.897C186.961 141.007 190.309 144.351 194.425 144.351C198.541 144.351 201.89 141.007 201.89 136.897C201.89 132.787 198.541 129.443 194.425 129.443Z" fill="white"/>
<path d="M194.425 121.48C189.525 121.48 185.534 117.498 185.534 112.601L181.957 34.6205C181.957 27.7541 187.549 22.1698 194.425 22.1698C201.301 22.1698 206.893 27.7541 206.893 34.6205L203.316 112.633C203.316 117.495 199.329 121.476 194.429 121.476L194.425 121.48ZM183.383 34.6062L186.961 112.573C186.961 116.715 190.309 120.059 194.425 120.059C198.541 120.059 201.89 116.715 201.89 112.605L205.467 34.592C205.467 28.5447 200.513 23.5979 194.425 23.5979C188.337 23.5979 183.394 28.534 183.383 34.6062Z" fill="white"/>
<path d="M389 71.1143H244.569V72.5388H389V71.1143Z" fill="white"/>
<path d="M144.431 71.1143H0V72.5388H144.431V71.1143Z" fill="white"/>
</g>
<defs>
<clipPath id="clip0_44_2120">
<rect width="389" height="193" fill="white"/>
</clipPath>
</defs>
</svg>
