<svg width="33" height="34" viewBox="0 0 33 34" fill="none" xmlns="http://www.w3.org/2000/svg">
<g id="phone.fill">
<path id="phone.fill_2" d="M12.0871 21.4789C15.1429 24.6379 18.8616 27.0712 21.8967 27.0712C23.2536 27.0712 24.4449 26.5803 25.3978 25.4917C25.9572 24.8514 26.299 24.115 26.299 23.3786C26.299 22.8129 26.0815 22.258 25.5532 21.8737L22.3732 19.5472C21.8656 19.1843 21.4512 19.0135 21.0783 19.0135C20.5915 19.0135 20.1564 19.291 19.6799 19.7819L18.9341 20.5504C18.8098 20.6678 18.6648 20.7211 18.5301 20.7211C18.3644 20.7211 18.209 20.6571 18.1054 20.5931C17.4528 20.2302 16.3341 19.2483 15.2983 18.1811C14.2624 17.1138 13.2991 15.9719 12.9572 15.2889C12.8951 15.1715 12.8433 15.022 12.8433 14.8513C12.8433 14.7232 12.8847 14.5738 12.9987 14.4457L13.7445 13.6666C14.2106 13.165 14.4903 12.7275 14.4903 12.2259C14.4903 11.831 14.3246 11.4041 13.9724 10.8918L11.7246 7.64739C11.3413 7.09243 10.8027 6.85763 10.2122 6.85763C9.50785 6.85763 8.80347 7.1778 8.19231 7.78613C7.15646 8.78934 6.70068 10.038 6.70068 11.4148C6.70068 14.5418 9.03135 18.3305 12.0871 21.4789Z" fill="#1C1C1E"/>
</g>
</svg>
