<svg width="374" height="210" viewBox="0 0 374 210" fill="none" xmlns="http://www.w3.org/2000/svg">
<g filter="url(#filter0_dd_133_331)">
<rect x="3" y="3" width="368" height="58" rx="10" fill="white"/>
<rect width="24" height="24" transform="translate(73 20)" fill="white"/>
<path fill-rule="evenodd" clip-rule="evenodd" d="M96.04 32.2614C96.04 31.4459 95.9668 30.6618 95.8309 29.9091H85V34.3575H91.1891C90.9225 35.795 90.1123 37.013 88.8943 37.8284V40.7139H92.6109C94.7855 38.7118 96.04 35.7636 96.04 32.2614Z" fill="#4285F4"/>
<path fill-rule="evenodd" clip-rule="evenodd" d="M84.9999 43.4998C88.1049 43.4998 90.7081 42.4701 92.6108 40.7137L88.8943 37.8282C87.8645 38.5182 86.5472 38.926 84.9999 38.926C82.0047 38.926 79.4695 36.903 78.5652 34.1848H74.7231V37.1644C76.6154 40.9228 80.5045 43.4998 84.9999 43.4998Z" fill="#34A853"/>
<path fill-rule="evenodd" clip-rule="evenodd" d="M78.5652 34.1851C78.3352 33.4951 78.2045 32.758 78.2045 32.0001C78.2045 31.2421 78.3352 30.5051 78.5652 29.8151V26.8355H74.7232C73.9443 28.388 73.5 30.1444 73.5 32.0001C73.5 33.8557 73.9443 35.6121 74.7232 37.1646L78.5652 34.1851Z" fill="#FBBC05"/>
<path fill-rule="evenodd" clip-rule="evenodd" d="M84.9999 25.0739C86.6883 25.0739 88.2043 25.6541 89.3961 26.7936L92.6945 23.4952C90.7029 21.6395 88.0997 20.5 84.9999 20.5C80.5045 20.5 76.6154 23.077 74.7231 26.8355L78.5652 29.815C79.4695 27.0968 82.0047 25.0739 84.9999 25.0739Z" fill="#EA4335"/>
<path d="M120.877 34.3379C120.877 33.7129 120.656 33.2311 120.213 32.8926C119.777 32.554 118.986 32.2122 117.84 31.8672C116.694 31.5221 115.783 31.138 115.105 30.7148C113.81 29.901 113.162 28.8398 113.162 27.5312C113.162 26.3854 113.628 25.4414 114.559 24.6992C115.496 23.957 116.71 23.5859 118.201 23.5859C119.191 23.5859 120.073 23.7682 120.848 24.1328C121.622 24.4974 122.231 25.0182 122.674 25.6953C123.117 26.3659 123.338 27.1113 123.338 27.9316H120.877C120.877 27.1895 120.643 26.61 120.174 26.1934C119.712 25.7702 119.048 25.5586 118.182 25.5586C117.374 25.5586 116.746 25.7311 116.297 26.0762C115.854 26.4212 115.633 26.903 115.633 27.5215C115.633 28.0423 115.874 28.4785 116.355 28.8301C116.837 29.1751 117.632 29.5137 118.738 29.8457C119.845 30.1712 120.734 30.5456 121.404 30.9688C122.075 31.3854 122.566 31.8672 122.879 32.4141C123.191 32.9544 123.348 33.5892 123.348 34.3184C123.348 35.5033 122.892 36.4473 121.98 37.1504C121.076 37.847 119.845 38.1953 118.289 38.1953C117.26 38.1953 116.313 38.0065 115.447 37.6289C114.588 37.2448 113.917 36.7174 113.436 36.0469C112.96 35.3763 112.723 34.5951 112.723 33.7031H115.193C115.193 34.5104 115.46 35.1354 115.994 35.5781C116.528 36.0208 117.293 36.2422 118.289 36.2422C119.148 36.2422 119.793 36.0697 120.223 35.7246C120.659 35.373 120.877 34.9108 120.877 34.3379ZM127.811 38H125.438V27.4336H127.811V38ZM125.291 24.6895C125.291 24.3249 125.405 24.0221 125.633 23.7812C125.867 23.5404 126.199 23.4199 126.629 23.4199C127.059 23.4199 127.391 23.5404 127.625 23.7812C127.859 24.0221 127.977 24.3249 127.977 24.6895C127.977 25.0475 127.859 25.347 127.625 25.5879C127.391 25.8223 127.059 25.9395 126.629 25.9395C126.199 25.9395 125.867 25.8223 125.633 25.5879C125.405 25.347 125.291 25.0475 125.291 24.6895ZM129.988 32.6387C129.988 30.998 130.372 29.6895 131.141 28.7129C131.915 27.7298 132.941 27.2383 134.217 27.2383C135.421 27.2383 136.368 27.6582 137.059 28.498L137.166 27.4336H139.305V37.6777C139.305 39.0645 138.872 40.1582 138.006 40.959C137.146 41.7598 135.984 42.1602 134.52 42.1602C133.745 42.1602 132.986 41.9974 132.244 41.6719C131.508 41.3529 130.949 40.9329 130.564 40.4121L131.688 38.9863C132.417 39.8522 133.315 40.2852 134.383 40.2852C135.171 40.2852 135.792 40.0703 136.248 39.6406C136.704 39.2174 136.932 38.5924 136.932 37.7656V37.0527C136.248 37.8145 135.337 38.1953 134.197 38.1953C132.96 38.1953 131.948 37.7038 131.16 36.7207C130.379 35.7376 129.988 34.377 129.988 32.6387ZM132.352 32.8438C132.352 33.9049 132.566 34.7415 132.996 35.3535C133.432 35.959 134.035 36.2617 134.803 36.2617C135.76 36.2617 136.469 35.8516 136.932 35.0312V30.3828C136.482 29.582 135.779 29.1816 134.822 29.1816C134.041 29.1816 133.432 29.4909 132.996 30.1094C132.566 30.7279 132.352 31.6393 132.352 32.8438ZM143.953 27.4336L144.021 28.6543C144.803 27.7103 145.828 27.2383 147.098 27.2383C149.298 27.2383 150.418 28.498 150.457 31.0176V38H148.084V31.1543C148.084 30.4837 147.938 29.9889 147.645 29.6699C147.358 29.3444 146.886 29.1816 146.229 29.1816C145.271 29.1816 144.559 29.6146 144.09 30.4805V38H141.717V27.4336H143.953ZM160.701 38H158.24V23.7812H160.701V38ZM165.711 27.4336L165.779 28.6543C166.561 27.7103 167.586 27.2383 168.855 27.2383C171.056 27.2383 172.176 28.498 172.215 31.0176V38H169.842V31.1543C169.842 30.4837 169.695 29.9889 169.402 29.6699C169.116 29.3444 168.644 29.1816 167.986 29.1816C167.029 29.1816 166.316 29.6146 165.848 30.4805V38H163.475V27.4336H165.711ZM188.904 34.7285L190.584 27.4336H192.898L190.018 38H188.064L185.799 30.7441L183.572 38H181.619L178.729 27.4336H181.043L182.752 34.6504L184.92 27.4336H186.707L188.904 34.7285ZM197.01 38H194.637V27.4336H197.01V38ZM194.49 24.6895C194.49 24.3249 194.604 24.0221 194.832 23.7812C195.066 23.5404 195.398 23.4199 195.828 23.4199C196.258 23.4199 196.59 23.5404 196.824 23.7812C197.059 24.0221 197.176 24.3249 197.176 24.6895C197.176 25.0475 197.059 25.347 196.824 25.5879C196.59 25.8223 196.258 25.9395 195.828 25.9395C195.398 25.9395 195.066 25.8223 194.832 25.5879C194.604 25.347 194.49 25.0475 194.49 24.6895ZM202.576 24.8652V27.4336H204.441V29.1914H202.576V35.0898C202.576 35.4935 202.654 35.7865 202.811 35.9688C202.973 36.1445 203.26 36.2324 203.67 36.2324C203.943 36.2324 204.22 36.1999 204.5 36.1348V37.9707C203.96 38.1204 203.439 38.1953 202.938 38.1953C201.115 38.1953 200.203 37.1895 200.203 35.1777V29.1914H198.465V27.4336H200.203V24.8652H202.576ZM208.602 28.5859C209.376 27.6875 210.356 27.2383 211.541 27.2383C213.794 27.2383 214.936 28.5241 214.969 31.0957V38H212.596V31.1836C212.596 30.4544 212.436 29.9401 212.117 29.6406C211.805 29.3346 211.342 29.1816 210.73 29.1816C209.78 29.1816 209.07 29.6048 208.602 30.4512V38H206.229V23H208.602V28.5859ZM233.484 36.1543C232.97 36.8249 232.257 37.3327 231.346 37.6777C230.434 38.0228 229.399 38.1953 228.24 38.1953C227.049 38.1953 225.994 37.9251 225.076 37.3848C224.158 36.8444 223.449 36.0729 222.947 35.0703C222.452 34.0612 222.195 32.8861 222.176 31.5449V30.4316C222.176 28.2832 222.69 26.6068 223.719 25.4023C224.747 24.1914 226.183 23.5859 228.025 23.5859C229.607 23.5859 230.864 23.9766 231.795 24.7578C232.726 25.5391 233.286 26.6654 233.475 28.1367H231.053C230.779 26.4245 229.786 25.5684 228.074 25.5684C226.967 25.5684 226.124 25.9688 225.545 26.7695C224.972 27.5638 224.676 28.7324 224.656 30.2754V31.3691C224.656 32.9056 224.979 34.1003 225.623 34.9531C226.274 35.7995 227.176 36.2227 228.328 36.2227C229.591 36.2227 230.49 35.9362 231.023 35.3633V32.5801H228.094V30.7051H233.484V36.1543ZM235.525 32.6191C235.525 31.584 235.73 30.653 236.141 29.8262C236.551 28.9928 237.127 28.3548 237.869 27.9121C238.611 27.4629 239.464 27.2383 240.428 27.2383C241.854 27.2383 243.009 27.6973 243.895 28.6152C244.786 29.5332 245.268 30.7507 245.34 32.2676L245.35 32.8242C245.35 33.8659 245.148 34.7969 244.744 35.6172C244.347 36.4375 243.774 37.0723 243.025 37.5215C242.283 37.9707 241.424 38.1953 240.447 38.1953C238.956 38.1953 237.762 37.7005 236.863 36.7109C235.971 35.7148 235.525 34.39 235.525 32.7363V32.6191ZM237.898 32.8242C237.898 33.9115 238.123 34.7643 238.572 35.3828C239.021 35.9948 239.646 36.3008 240.447 36.3008C241.248 36.3008 241.87 35.9883 242.312 35.3633C242.762 34.7383 242.986 33.8236 242.986 32.6191C242.986 31.5514 242.755 30.7051 242.293 30.0801C241.837 29.4551 241.215 29.1426 240.428 29.1426C239.653 29.1426 239.038 29.4518 238.582 30.0703C238.126 30.6823 237.898 31.6003 237.898 32.8242ZM246.912 32.6191C246.912 31.584 247.117 30.653 247.527 29.8262C247.938 28.9928 248.514 28.3548 249.256 27.9121C249.998 27.4629 250.851 27.2383 251.814 27.2383C253.24 27.2383 254.396 27.6973 255.281 28.6152C256.173 29.5332 256.655 30.7507 256.727 32.2676L256.736 32.8242C256.736 33.8659 256.535 34.7969 256.131 35.6172C255.734 36.4375 255.161 37.0723 254.412 37.5215C253.67 37.9707 252.811 38.1953 251.834 38.1953C250.343 38.1953 249.148 37.7005 248.25 36.7109C247.358 35.7148 246.912 34.39 246.912 32.7363V32.6191ZM249.285 32.8242C249.285 33.9115 249.51 34.7643 249.959 35.3828C250.408 35.9948 251.033 36.3008 251.834 36.3008C252.635 36.3008 253.257 35.9883 253.699 35.3633C254.148 34.7383 254.373 33.8236 254.373 32.6191C254.373 31.5514 254.142 30.7051 253.68 30.0801C253.224 29.4551 252.602 29.1426 251.814 29.1426C251.04 29.1426 250.424 29.4518 249.969 30.0703C249.513 30.6823 249.285 31.6003 249.285 32.8242ZM258.328 32.6387C258.328 30.998 258.712 29.6895 259.48 28.7129C260.255 27.7298 261.281 27.2383 262.557 27.2383C263.761 27.2383 264.708 27.6582 265.398 28.498L265.506 27.4336H267.645V37.6777C267.645 39.0645 267.212 40.1582 266.346 40.959C265.486 41.7598 264.324 42.1602 262.859 42.1602C262.085 42.1602 261.326 41.9974 260.584 41.6719C259.848 41.3529 259.288 40.9329 258.904 40.4121L260.027 38.9863C260.757 39.8522 261.655 40.2852 262.723 40.2852C263.51 40.2852 264.132 40.0703 264.588 39.6406C265.044 39.2174 265.271 38.5924 265.271 37.7656V37.0527C264.588 37.8145 263.676 38.1953 262.537 38.1953C261.3 38.1953 260.288 37.7038 259.5 36.7207C258.719 35.7376 258.328 34.377 258.328 32.6387ZM260.691 32.8438C260.691 33.9049 260.906 34.7415 261.336 35.3535C261.772 35.959 262.374 36.2617 263.143 36.2617C264.1 36.2617 264.809 35.8516 265.271 35.0312V30.3828C264.822 29.582 264.119 29.1816 263.162 29.1816C262.381 29.1816 261.772 29.4909 261.336 30.1094C260.906 30.7279 260.691 31.6393 260.691 32.8438ZM272.615 38H270.242V23H272.615V38ZM279.861 38.1953C278.357 38.1953 277.137 37.7233 276.199 36.7793C275.268 35.8288 274.803 34.5658 274.803 32.9902V32.6973C274.803 31.6426 275.005 30.7018 275.408 29.875C275.818 29.0417 276.391 28.3939 277.127 27.9316C277.863 27.4694 278.683 27.2383 279.588 27.2383C281.027 27.2383 282.137 27.6973 282.918 28.6152C283.706 29.5332 284.1 30.832 284.1 32.5117V33.4688H277.195C277.267 34.3411 277.557 35.0312 278.064 35.5391C278.579 36.0469 279.223 36.3008 279.998 36.3008C281.085 36.3008 281.971 35.8613 282.654 34.9824L283.934 36.2031C283.51 36.8346 282.944 37.3262 282.234 37.6777C281.531 38.0228 280.74 38.1953 279.861 38.1953ZM279.578 29.1426C278.927 29.1426 278.4 29.3704 277.996 29.8262C277.599 30.2819 277.345 30.9167 277.234 31.7305H281.756V31.5547C281.704 30.7604 281.492 30.1615 281.121 29.7578C280.75 29.3477 280.236 29.1426 279.578 29.1426Z" fill="black" fill-opacity="0.54"/>
</g>
<g filter="url(#filter1_dd_133_331)">
<rect x="3" y="147" width="368" height="58" rx="10" fill="white"/>
<rect width="24" height="24" transform="translate(73 164)" fill="white"/>
<g clip-path="url(#clip0_133_331)">
<path d="M94.9601 182.999L95.2013 183.241C95.0432 183.403 94.8415 183.482 94.6003 183.482H73.3206C73.0003 183.482 72.6801 183.28 72.5615 183.003H72.9608L79.9592 176.004L80.1173 175.846L81.9954 177.645C83.0748 178.685 84.7947 178.685 85.8741 177.645L87.7522 175.846L87.9104 176.004L94.9483 183.003L94.9601 182.999Z" fill="white"/>
<path d="M95.1974 168.759L94.9562 169.001L87.7957 175.842L85.9176 177.641C84.8382 178.681 83.1183 178.681 82.0389 177.641L80.1608 175.842L72.9608 169.001H72.5615C72.6801 168.72 73.0003 168.522 73.3206 168.522H94.6399C94.8415 168.522 95.0392 168.601 95.2013 168.763L95.1974 168.759Z" fill="white"/>
<path d="M80.1212 175.842L79.9631 176L72.9608 183H72.5614C72.5219 182.881 72.4824 182.758 72.4824 182.64V169.36C72.4824 169.242 72.5219 169.119 72.5614 169H72.9608L80.1212 175.842Z" fill="#5DCAEC"/>
<path d="M94.9601 169.001L95.2013 168.759C95.3595 168.917 95.4425 169.119 95.4425 169.36V182.683C95.4425 182.924 95.3634 183.122 95.2013 183.284L94.9601 183.003L87.9618 176.004L87.8036 175.846L94.9601 169.001Z" fill="#5DCAEC"/>
<path d="M94.5964 184H73.3206C72.7987 184 72.3203 183.68 72.1186 183.241C72.0395 183.039 72 182.881 72 182.64V169.36C72 169.159 72.0395 168.961 72.1186 168.759C72.3598 168.281 72.8382 168 73.3206 168H94.6399C94.9997 168 95.3199 168.158 95.6007 168.399C95.8418 168.641 96 169 96 169.36V182.683C96 183.043 95.8418 183.363 95.6007 183.644C95.3199 183.846 94.9601 184.004 94.6003 184.004L94.5964 184ZM73.3206 169C73.202 169 73.0794 169.08 73.0003 169.202C72.9608 169.242 72.9608 169.281 72.9608 169.364V182.687C72.9608 182.727 72.9608 182.806 73.0003 182.845C73.0399 182.964 73.202 183.047 73.3206 183.047H94.6399C94.7189 183.047 94.8415 183.007 94.8811 182.928C94.9601 182.849 94.9997 182.766 94.9997 182.687V169.36C94.9997 169.281 94.9601 169.159 94.8811 169.119C94.802 169.04 94.7229 169 94.6399 169H73.3206Z" fill="#138ACB"/>
<path d="M83.9605 178.922C83.1223 178.922 82.3196 178.602 81.6791 178.001L72.601 169.36C72.3994 169.159 72.3994 168.838 72.601 168.641C72.8027 168.439 73.1229 168.439 73.3206 168.641L82.3592 177.281C83.2409 178.12 84.6801 178.12 85.5578 177.281L94.5964 168.641C94.798 168.439 95.1183 168.439 95.316 168.641C95.5176 168.842 95.5176 169.163 95.316 169.36L86.2379 178.001C85.5974 178.602 84.7987 178.922 83.9565 178.922H83.9605Z" fill="#138ACB"/>
<path d="M72.9608 183.521C72.8422 183.521 72.7196 183.482 72.601 183.363C72.3994 183.162 72.3994 182.841 72.601 182.644L79.5994 175.644C79.801 175.442 80.1173 175.442 80.319 175.644C80.5206 175.846 80.5206 176.162 80.319 176.364L73.3206 183.359C73.202 183.438 73.0794 183.518 72.9608 183.518V183.521Z" fill="#138ACB"/>
<path d="M94.9601 183.521C94.8415 183.521 94.7189 183.482 94.6003 183.363L87.602 176.364C87.4003 176.162 87.4003 175.846 87.602 175.644C87.8036 175.442 88.1199 175.442 88.3216 175.644L95.3199 182.644C95.5216 182.845 95.5216 183.166 95.3199 183.363C95.2013 183.442 95.0788 183.521 94.9601 183.521Z" fill="#138ACB"/>
</g>
<path d="M120.926 178.338C120.926 178.045 120.88 177.785 120.789 177.557C120.704 177.329 120.551 177.12 120.33 176.932C120.109 176.743 119.796 176.561 119.393 176.385C118.995 176.202 118.488 176.017 117.869 175.828C117.192 175.62 116.567 175.389 115.994 175.135C115.428 174.874 114.933 174.575 114.51 174.236C114.087 173.891 113.758 173.497 113.523 173.055C113.289 172.605 113.172 172.088 113.172 171.502C113.172 170.923 113.292 170.395 113.533 169.92C113.781 169.445 114.129 169.035 114.578 168.689C115.034 168.338 115.571 168.068 116.189 167.879C116.808 167.684 117.492 167.586 118.24 167.586C119.295 167.586 120.203 167.781 120.965 168.172C121.733 168.562 122.322 169.087 122.732 169.744C123.149 170.402 123.357 171.128 123.357 171.922H120.926C120.926 171.453 120.825 171.04 120.623 170.682C120.428 170.317 120.128 170.031 119.725 169.822C119.327 169.614 118.823 169.51 118.211 169.51C117.632 169.51 117.15 169.598 116.766 169.773C116.382 169.949 116.095 170.187 115.906 170.486C115.717 170.786 115.623 171.124 115.623 171.502C115.623 171.769 115.685 172.013 115.809 172.234C115.932 172.449 116.121 172.651 116.375 172.84C116.629 173.022 116.948 173.195 117.332 173.357C117.716 173.52 118.169 173.676 118.689 173.826C119.477 174.061 120.164 174.321 120.75 174.607C121.336 174.887 121.824 175.206 122.215 175.564C122.605 175.923 122.898 176.329 123.094 176.785C123.289 177.234 123.387 177.745 123.387 178.318C123.387 178.917 123.266 179.458 123.025 179.939C122.785 180.415 122.439 180.822 121.99 181.16C121.548 181.492 121.014 181.749 120.389 181.932C119.77 182.107 119.08 182.195 118.318 182.195C117.635 182.195 116.961 182.104 116.297 181.922C115.639 181.74 115.04 181.463 114.5 181.092C113.96 180.714 113.53 180.245 113.211 179.686C112.892 179.119 112.732 178.458 112.732 177.703H115.184C115.184 178.165 115.262 178.559 115.418 178.885C115.581 179.21 115.805 179.477 116.092 179.686C116.378 179.887 116.71 180.037 117.088 180.135C117.472 180.232 117.882 180.281 118.318 180.281C118.891 180.281 119.37 180.2 119.754 180.037C120.145 179.874 120.438 179.646 120.633 179.354C120.828 179.061 120.926 178.722 120.926 178.338ZM127.84 171.434V182H125.477V171.434H127.84ZM125.32 168.66C125.32 168.302 125.438 168.006 125.672 167.771C125.913 167.531 126.245 167.41 126.668 167.41C127.085 167.41 127.413 167.531 127.654 167.771C127.895 168.006 128.016 168.302 128.016 168.66C128.016 169.012 127.895 169.305 127.654 169.539C127.413 169.773 127.085 169.891 126.668 169.891C126.245 169.891 125.913 169.773 125.672 169.539C125.438 169.305 125.32 169.012 125.32 168.66ZM137.186 171.434H139.324V181.707C139.324 182.658 139.122 183.465 138.719 184.129C138.315 184.793 137.752 185.298 137.029 185.643C136.307 185.994 135.47 186.17 134.52 186.17C134.116 186.17 133.667 186.111 133.172 185.994C132.684 185.877 132.208 185.688 131.746 185.428C131.29 185.174 130.91 184.839 130.604 184.422L131.707 183.035C132.085 183.484 132.501 183.813 132.957 184.021C133.413 184.23 133.891 184.334 134.393 184.334C134.933 184.334 135.392 184.233 135.77 184.031C136.154 183.836 136.45 183.546 136.658 183.162C136.867 182.778 136.971 182.309 136.971 181.756V173.826L137.186 171.434ZM130.008 176.834V176.629C130.008 175.828 130.105 175.099 130.301 174.441C130.496 173.777 130.776 173.208 131.141 172.732C131.505 172.251 131.948 171.883 132.469 171.629C132.99 171.368 133.579 171.238 134.236 171.238C134.92 171.238 135.503 171.362 135.984 171.609C136.473 171.857 136.88 172.212 137.205 172.674C137.531 173.13 137.785 173.676 137.967 174.314C138.156 174.946 138.296 175.649 138.387 176.424V177.078C138.302 177.833 138.159 178.523 137.957 179.148C137.755 179.773 137.488 180.314 137.156 180.77C136.824 181.225 136.414 181.577 135.926 181.824C135.444 182.072 134.874 182.195 134.217 182.195C133.572 182.195 132.99 182.062 132.469 181.795C131.954 181.528 131.512 181.154 131.141 180.672C130.776 180.19 130.496 179.624 130.301 178.973C130.105 178.315 130.008 177.602 130.008 176.834ZM132.361 176.629V176.834C132.361 177.316 132.407 177.765 132.498 178.182C132.596 178.598 132.742 178.966 132.938 179.285C133.139 179.598 133.393 179.845 133.699 180.027C134.012 180.203 134.38 180.291 134.803 180.291C135.356 180.291 135.809 180.174 136.16 179.939C136.518 179.705 136.792 179.389 136.98 178.992C137.176 178.589 137.312 178.139 137.391 177.645V175.877C137.352 175.493 137.27 175.135 137.146 174.803C137.029 174.471 136.87 174.181 136.668 173.934C136.466 173.68 136.212 173.484 135.906 173.348C135.6 173.204 135.239 173.133 134.822 173.133C134.399 173.133 134.031 173.224 133.719 173.406C133.406 173.589 133.149 173.839 132.947 174.158C132.752 174.477 132.605 174.848 132.508 175.271C132.41 175.695 132.361 176.147 132.361 176.629ZM144.1 173.689V182H141.746V171.434H143.963L144.1 173.689ZM143.68 176.326L142.918 176.316C142.924 175.568 143.029 174.881 143.23 174.256C143.439 173.631 143.725 173.094 144.09 172.645C144.461 172.195 144.904 171.85 145.418 171.609C145.932 171.362 146.505 171.238 147.137 171.238C147.645 171.238 148.104 171.31 148.514 171.453C148.93 171.59 149.285 171.814 149.578 172.127C149.878 172.439 150.105 172.846 150.262 173.348C150.418 173.842 150.496 174.451 150.496 175.174V182H148.133V175.164C148.133 174.656 148.058 174.256 147.908 173.963C147.765 173.663 147.553 173.452 147.273 173.328C147 173.198 146.658 173.133 146.248 173.133C145.844 173.133 145.483 173.217 145.164 173.387C144.845 173.556 144.575 173.787 144.354 174.08C144.139 174.373 143.973 174.712 143.855 175.096C143.738 175.48 143.68 175.89 143.68 176.326ZM160.73 167.781V182H158.279V167.781H160.73ZM165.877 173.689V182H163.523V171.434H165.74L165.877 173.689ZM165.457 176.326L164.695 176.316C164.702 175.568 164.806 174.881 165.008 174.256C165.216 173.631 165.503 173.094 165.867 172.645C166.238 172.195 166.681 171.85 167.195 171.609C167.71 171.362 168.283 171.238 168.914 171.238C169.422 171.238 169.881 171.31 170.291 171.453C170.708 171.59 171.062 171.814 171.355 172.127C171.655 172.439 171.883 172.846 172.039 173.348C172.195 173.842 172.273 174.451 172.273 175.174V182H169.91V175.164C169.91 174.656 169.835 174.256 169.686 173.963C169.542 173.663 169.331 173.452 169.051 173.328C168.777 173.198 168.436 173.133 168.025 173.133C167.622 173.133 167.26 173.217 166.941 173.387C166.622 173.556 166.352 173.787 166.131 174.08C165.916 174.373 165.75 174.712 165.633 175.096C165.516 175.48 165.457 175.89 165.457 176.326ZM182.527 179.656L184.969 171.434H186.473L186.062 173.895L183.602 182H182.254L182.527 179.656ZM181.092 171.434L182.996 179.695L183.152 182H181.648L178.787 171.434H181.092ZM188.758 179.598L190.604 171.434H192.898L190.047 182H188.543L188.758 179.598ZM186.727 171.434L189.139 179.559L189.441 182H188.094L185.604 173.885L185.193 171.434H186.727ZM197.02 171.434V182H194.656V171.434H197.02ZM194.5 168.66C194.5 168.302 194.617 168.006 194.852 167.771C195.092 167.531 195.424 167.41 195.848 167.41C196.264 167.41 196.593 167.531 196.834 167.771C197.075 168.006 197.195 168.302 197.195 168.66C197.195 169.012 197.075 169.305 196.834 169.539C196.593 169.773 196.264 169.891 195.848 169.891C195.424 169.891 195.092 169.773 194.852 169.539C194.617 169.305 194.5 169.012 194.5 168.66ZM204.441 171.434V173.152H198.484V171.434H204.441ZM200.203 168.846H202.557V179.08C202.557 179.406 202.602 179.656 202.693 179.832C202.791 180.001 202.924 180.115 203.094 180.174C203.263 180.232 203.462 180.262 203.689 180.262C203.852 180.262 204.008 180.252 204.158 180.232C204.308 180.213 204.428 180.193 204.52 180.174L204.529 181.971C204.334 182.029 204.106 182.081 203.846 182.127C203.592 182.173 203.299 182.195 202.967 182.195C202.426 182.195 201.948 182.101 201.531 181.912C201.115 181.717 200.789 181.401 200.555 180.965C200.32 180.529 200.203 179.949 200.203 179.227V168.846ZM208.582 167V182H206.238V167H208.582ZM208.172 176.326L207.41 176.316C207.417 175.587 207.518 174.913 207.713 174.295C207.915 173.676 208.195 173.139 208.553 172.684C208.917 172.221 209.354 171.867 209.861 171.619C210.369 171.365 210.932 171.238 211.551 171.238C212.072 171.238 212.54 171.31 212.957 171.453C213.38 171.596 213.745 171.827 214.051 172.146C214.357 172.459 214.588 172.869 214.744 173.377C214.907 173.878 214.988 174.49 214.988 175.213V182H212.625V175.193C212.625 174.686 212.55 174.282 212.4 173.982C212.257 173.683 212.046 173.468 211.766 173.338C211.486 173.201 211.144 173.133 210.74 173.133C210.317 173.133 209.943 173.217 209.617 173.387C209.298 173.556 209.031 173.787 208.816 174.08C208.602 174.373 208.439 174.712 208.328 175.096C208.224 175.48 208.172 175.89 208.172 176.326ZM227.01 182.195C226.229 182.195 225.522 182.068 224.891 181.814C224.266 181.554 223.732 181.193 223.289 180.73C222.853 180.268 222.518 179.725 222.283 179.1C222.049 178.475 221.932 177.801 221.932 177.078V176.688C221.932 175.861 222.052 175.112 222.293 174.441C222.534 173.771 222.869 173.198 223.299 172.723C223.729 172.241 224.236 171.873 224.822 171.619C225.408 171.365 226.043 171.238 226.727 171.238C227.482 171.238 228.143 171.365 228.709 171.619C229.275 171.873 229.744 172.231 230.115 172.693C230.493 173.149 230.773 173.693 230.955 174.324C231.144 174.956 231.238 175.652 231.238 176.414V177.42H223.074V175.73H228.914V175.545C228.901 175.122 228.816 174.725 228.66 174.354C228.51 173.982 228.279 173.683 227.967 173.455C227.654 173.227 227.238 173.113 226.717 173.113C226.326 173.113 225.978 173.198 225.672 173.367C225.372 173.53 225.122 173.768 224.92 174.08C224.718 174.393 224.562 174.77 224.451 175.213C224.347 175.649 224.295 176.141 224.295 176.688V177.078C224.295 177.54 224.357 177.97 224.48 178.367C224.611 178.758 224.799 179.1 225.047 179.393C225.294 179.686 225.594 179.917 225.945 180.086C226.297 180.249 226.697 180.33 227.146 180.33C227.713 180.33 228.217 180.216 228.66 179.988C229.103 179.76 229.487 179.438 229.812 179.021L231.053 180.223C230.825 180.555 230.529 180.874 230.164 181.18C229.799 181.479 229.354 181.723 228.826 181.912C228.305 182.101 227.7 182.195 227.01 182.195ZM235.428 173.582V182H233.074V171.434H235.291L235.428 173.582ZM235.047 176.326L234.246 176.316C234.246 175.587 234.337 174.913 234.52 174.295C234.702 173.676 234.969 173.139 235.32 172.684C235.672 172.221 236.108 171.867 236.629 171.619C237.156 171.365 237.765 171.238 238.455 171.238C238.937 171.238 239.376 171.31 239.773 171.453C240.177 171.59 240.525 171.808 240.818 172.107C241.118 172.407 241.346 172.791 241.502 173.26C241.665 173.729 241.746 174.295 241.746 174.959V182H239.393V175.164C239.393 174.65 239.314 174.246 239.158 173.953C239.008 173.66 238.79 173.452 238.504 173.328C238.224 173.198 237.889 173.133 237.498 173.133C237.055 173.133 236.678 173.217 236.365 173.387C236.059 173.556 235.809 173.787 235.613 174.08C235.418 174.373 235.275 174.712 235.184 175.096C235.092 175.48 235.047 175.89 235.047 176.326ZM241.6 175.701L240.496 175.945C240.496 175.307 240.584 174.705 240.76 174.139C240.942 173.566 241.206 173.064 241.551 172.635C241.902 172.199 242.335 171.857 242.85 171.609C243.364 171.362 243.953 171.238 244.617 171.238C245.158 171.238 245.639 171.313 246.062 171.463C246.492 171.606 246.857 171.834 247.156 172.146C247.456 172.459 247.684 172.866 247.84 173.367C247.996 173.862 248.074 174.461 248.074 175.164V182H245.711V175.154C245.711 174.62 245.633 174.207 245.477 173.914C245.327 173.621 245.112 173.419 244.832 173.309C244.552 173.191 244.217 173.133 243.826 173.133C243.462 173.133 243.139 173.201 242.859 173.338C242.586 173.468 242.355 173.654 242.166 173.895C241.977 174.129 241.834 174.399 241.736 174.705C241.645 175.011 241.6 175.343 241.6 175.701ZM256.453 179.881V174.842C256.453 174.464 256.385 174.139 256.248 173.865C256.111 173.592 255.903 173.38 255.623 173.23C255.35 173.081 255.005 173.006 254.588 173.006C254.204 173.006 253.872 173.071 253.592 173.201C253.312 173.331 253.094 173.507 252.938 173.729C252.781 173.95 252.703 174.201 252.703 174.48H250.359C250.359 174.064 250.46 173.66 250.662 173.27C250.864 172.879 251.157 172.531 251.541 172.225C251.925 171.919 252.384 171.678 252.918 171.502C253.452 171.326 254.051 171.238 254.715 171.238C255.509 171.238 256.212 171.372 256.824 171.639C257.443 171.906 257.928 172.309 258.279 172.85C258.637 173.383 258.816 174.054 258.816 174.861V179.559C258.816 180.04 258.849 180.473 258.914 180.857C258.986 181.235 259.087 181.564 259.217 181.844V182H256.805C256.694 181.746 256.606 181.424 256.541 181.033C256.482 180.636 256.453 180.252 256.453 179.881ZM256.795 175.574L256.814 177.029H255.125C254.689 177.029 254.305 177.072 253.973 177.156C253.641 177.234 253.364 177.352 253.143 177.508C252.921 177.664 252.755 177.853 252.645 178.074C252.534 178.296 252.479 178.546 252.479 178.826C252.479 179.106 252.544 179.363 252.674 179.598C252.804 179.826 252.993 180.005 253.24 180.135C253.494 180.265 253.8 180.33 254.158 180.33C254.64 180.33 255.06 180.232 255.418 180.037C255.783 179.835 256.069 179.591 256.277 179.305C256.486 179.012 256.596 178.735 256.609 178.475L257.371 179.52C257.293 179.786 257.16 180.073 256.971 180.379C256.782 180.685 256.535 180.978 256.229 181.258C255.929 181.531 255.568 181.756 255.145 181.932C254.728 182.107 254.246 182.195 253.699 182.195C253.009 182.195 252.394 182.059 251.854 181.785C251.313 181.505 250.89 181.131 250.584 180.662C250.278 180.187 250.125 179.65 250.125 179.051C250.125 178.491 250.229 177.996 250.438 177.566C250.652 177.13 250.965 176.766 251.375 176.473C251.792 176.18 252.299 175.958 252.898 175.809C253.497 175.652 254.181 175.574 254.949 175.574H256.795ZM263.797 171.434V182H261.434V171.434H263.797ZM261.277 168.66C261.277 168.302 261.395 168.006 261.629 167.771C261.87 167.531 262.202 167.41 262.625 167.41C263.042 167.41 263.37 167.531 263.611 167.771C263.852 168.006 263.973 168.302 263.973 168.66C263.973 169.012 263.852 169.305 263.611 169.539C263.37 169.773 263.042 169.891 262.625 169.891C262.202 169.891 261.87 169.773 261.629 169.539C261.395 169.305 261.277 169.012 261.277 168.66ZM268.895 167V182H266.531V167H268.895Z" fill="black" fill-opacity="0.54"/>
</g>
<g filter="url(#filter2_dd_133_331)">
<rect x="3" y="75" width="368" height="58" rx="10" fill="black"/>
<rect width="24" height="24" transform="translate(73 92)" fill="black"/>
<path d="M94.2806 110.424C93.9328 111.228 93.5211 111.967 93.0441 112.647C92.3939 113.574 91.8615 114.216 91.4512 114.572C90.8151 115.157 90.1337 115.457 89.4039 115.474C88.8801 115.474 88.2483 115.325 87.5129 115.022C86.7751 114.721 86.097 114.572 85.477 114.572C84.8268 114.572 84.1294 114.721 83.3835 115.022C82.6365 115.325 82.0347 115.482 81.5745 115.498C80.8748 115.528 80.1772 115.22 79.481 114.572C79.0367 114.185 78.4808 113.52 77.815 112.579C77.1006 111.574 76.5133 110.408 76.0531 109.08C75.5604 107.644 75.3133 106.254 75.3133 104.909C75.3133 103.367 75.6464 102.038 76.3135 100.924C76.8378 100.029 77.5353 99.3231 78.4083 98.8049C79.2813 98.2867 80.2245 98.0227 81.2403 98.0058C81.7961 98.0058 82.525 98.1777 83.4308 98.5156C84.334 98.8546 84.914 99.0265 85.1682 99.0265C85.3583 99.0265 86.0026 98.8255 87.0948 98.4247C88.1276 98.0531 88.9993 97.8992 89.7134 97.9598C91.6485 98.1159 93.1023 98.8788 94.0691 100.253C92.3385 101.302 91.4824 102.77 91.4994 104.654C91.5151 106.122 92.0474 107.343 93.0938 108.313C93.568 108.763 94.0975 109.111 94.6867 109.358C94.5589 109.728 94.424 110.083 94.2806 110.424ZM89.8426 92.9601C89.8426 94.1104 89.4224 95.1844 88.5848 96.1785C87.5739 97.3602 86.3513 98.0431 85.0254 97.9354C85.0085 97.7974 84.9987 97.6521 84.9987 97.4995C84.9987 96.3953 85.4794 95.2135 86.3331 94.2472C86.7593 93.758 87.3014 93.3512 87.9587 93.0267C88.6146 92.7071 89.235 92.5303 89.8185 92.5C89.8355 92.6538 89.8426 92.8076 89.8426 92.9601V92.9601Z" fill="white"/>
<path d="M119.674 107.074C119.811 109.623 121.92 111.234 125.045 111.234C128.385 111.234 130.484 109.584 130.484 106.947C130.484 104.887 129.283 103.725 126.393 103.041L124.84 102.66C123.023 102.211 122.281 101.625 122.281 100.629C122.281 99.3789 123.443 98.5195 125.143 98.5195C126.842 98.5195 128.004 99.3691 128.131 100.775H130.26C130.191 98.3438 128.15 96.6738 125.172 96.6738C122.164 96.6738 120.045 98.3438 120.045 100.775C120.045 102.738 121.246 103.949 123.834 104.574L125.66 105.014C127.486 105.463 128.258 106.117 128.258 107.211C128.258 108.471 126.979 109.389 125.201 109.389C123.346 109.389 121.988 108.471 121.832 107.074H119.674ZM132.262 111H134.371V100.727H132.262V111ZM133.316 99.2227C134 99.2227 134.547 98.6855 134.547 98.0215C134.547 97.3477 134 96.8105 133.316 96.8105C132.643 96.8105 132.096 97.3477 132.096 98.0215C132.096 98.6855 132.643 99.2227 133.316 99.2227ZM140.904 109.291C139.283 109.291 138.229 107.982 138.229 105.834C138.229 103.695 139.283 102.338 140.904 102.338C142.555 102.338 143.639 103.725 143.639 105.834C143.639 107.953 142.555 109.291 140.904 109.291ZM140.924 114.867C143.854 114.867 145.748 113.266 145.748 110.814V100.727H143.697V102.484H143.658C143.033 101.293 141.842 100.561 140.387 100.561C137.75 100.561 136.07 102.592 136.07 105.824C136.07 109.027 137.76 111.039 140.338 111.039C141.803 111.039 143.014 110.307 143.59 109.193H143.629V110.883C143.629 112.289 142.652 113.227 141.002 113.227C139.801 113.227 138.863 112.66 138.561 111.801H136.441C136.705 113.578 138.502 114.867 140.924 114.867ZM147.838 111H149.947V105.014C149.947 103.422 150.904 102.367 152.389 102.367C153.854 102.367 154.576 103.217 154.576 104.76V111H156.695V104.35C156.695 101.996 155.396 100.551 153.131 100.551C151.549 100.551 150.455 101.273 149.898 102.445H149.85V100.727H147.838V111ZM165.24 111V96.9082H163.053V111H165.24ZM167.584 111H169.693V105.014C169.693 103.422 170.65 102.367 172.135 102.367C173.6 102.367 174.322 103.217 174.322 104.76V111H176.441V104.35C176.441 101.996 175.143 100.551 172.877 100.551C171.295 100.551 170.201 101.273 169.645 102.445H169.596V100.727H167.584V111ZM196.1 100.727H194.01L192.135 108.812H192.086L189.938 100.727H187.906L185.768 108.812H185.729L183.854 100.727H181.744L184.566 111H186.744L188.883 103.305H188.932L191.09 111H193.287L196.1 100.727ZM197.457 111H199.566V100.727H197.457V111ZM198.512 99.2227C199.195 99.2227 199.742 98.6855 199.742 98.0215C199.742 97.3477 199.195 96.8105 198.512 96.8105C197.838 96.8105 197.291 97.3477 197.291 98.0215C197.291 98.6855 197.838 99.2227 198.512 99.2227ZM202.34 98.2949V100.727H200.846V102.396H202.34V108.295C202.34 110.277 203.15 111.068 205.23 111.068C205.699 111.068 206.168 111.029 206.402 110.971V109.301C206.266 109.33 205.924 109.35 205.709 109.35C204.85 109.35 204.459 108.949 204.459 108.061V102.396H206.412V100.727H204.459V98.2949H202.34ZM208.229 111H210.338V105.062C210.338 103.441 211.295 102.367 212.857 102.367C214.342 102.367 215.104 103.275 215.104 104.789V111H217.223V104.379C217.223 102.055 215.875 100.551 213.619 100.551C212.057 100.551 210.934 101.244 210.367 102.445H210.318V96.9082H208.229V111ZM232.76 111H235.074L229.986 96.9082H227.623L222.535 111H224.811L226.1 107.191H231.471L232.76 111ZM228.756 99.252H228.814L230.914 105.434H226.656L228.756 99.252ZM241.725 100.561C240.24 100.561 239.059 101.312 238.453 102.494H238.414V100.727H236.373V114.398H238.482V109.311H238.531C239.117 110.453 240.289 111.176 241.764 111.176C244.342 111.176 246.051 109.115 246.051 105.863C246.051 102.611 244.332 100.561 241.725 100.561ZM241.168 109.389C239.547 109.389 238.473 108.002 238.473 105.863C238.473 103.744 239.557 102.338 241.168 102.338C242.838 102.338 243.883 103.715 243.883 105.863C243.883 108.021 242.838 109.389 241.168 109.389ZM253.033 100.561C251.549 100.561 250.367 101.312 249.762 102.494H249.723V100.727H247.682V114.398H249.791V109.311H249.84C250.426 110.453 251.598 111.176 253.072 111.176C255.65 111.176 257.359 109.115 257.359 105.863C257.359 102.611 255.641 100.561 253.033 100.561ZM252.477 109.389C250.855 109.389 249.781 108.002 249.781 105.863C249.781 103.744 250.865 102.338 252.477 102.338C254.146 102.338 255.191 103.715 255.191 105.863C255.191 108.021 254.146 109.389 252.477 109.389ZM259.068 111H261.178V96.9082H259.068V111ZM267.643 102.24C269.117 102.24 270.113 103.344 270.162 104.916H265.025C265.133 103.363 266.168 102.24 267.643 102.24ZM270.152 107.982C269.869 108.881 268.98 109.486 267.779 109.486C266.09 109.486 265.016 108.305 265.016 106.518V106.391H272.271V105.668C272.271 102.553 270.494 100.541 267.643 100.541C264.742 100.541 262.887 102.689 262.887 105.912C262.887 109.154 264.713 111.195 267.73 111.195C270.084 111.195 271.861 109.857 272.154 107.982H270.152Z" fill="white"/>
</g>
<defs>
<filter id="filter0_dd_133_331" x="0" y="0" width="374" height="66" filterUnits="userSpaceOnUse" color-interpolation-filters="sRGB">
<feFlood flood-opacity="0" result="BackgroundImageFix"/>
<feColorMatrix in="SourceAlpha" type="matrix" values="0 0 0 0 0 0 0 0 0 0 0 0 0 0 0 0 0 0 127 0" result="hardAlpha"/>
<feOffset dy="2"/>
<feGaussianBlur stdDeviation="1.5"/>
<feColorMatrix type="matrix" values="0 0 0 0 0 0 0 0 0 0 0 0 0 0 0 0 0 0 0.168 0"/>
<feBlend mode="normal" in2="BackgroundImageFix" result="effect1_dropShadow_133_331"/>
<feColorMatrix in="SourceAlpha" type="matrix" values="0 0 0 0 0 0 0 0 0 0 0 0 0 0 0 0 0 0 127 0" result="hardAlpha"/>
<feOffset/>
<feGaussianBlur stdDeviation="1.5"/>
<feColorMatrix type="matrix" values="0 0 0 0 0 0 0 0 0 0 0 0 0 0 0 0 0 0 0.084 0"/>
<feBlend mode="normal" in2="effect1_dropShadow_133_331" result="effect2_dropShadow_133_331"/>
<feBlend mode="normal" in="SourceGraphic" in2="effect2_dropShadow_133_331" result="shape"/>
</filter>
<filter id="filter1_dd_133_331" x="0" y="144" width="374" height="66" filterUnits="userSpaceOnUse" color-interpolation-filters="sRGB">
<feFlood flood-opacity="0" result="BackgroundImageFix"/>
<feColorMatrix in="SourceAlpha" type="matrix" values="0 0 0 0 0 0 0 0 0 0 0 0 0 0 0 0 0 0 127 0" result="hardAlpha"/>
<feOffset dy="2"/>
<feGaussianBlur stdDeviation="1.5"/>
<feColorMatrix type="matrix" values="0 0 0 0 0 0 0 0 0 0 0 0 0 0 0 0 0 0 0.168 0"/>
<feBlend mode="normal" in2="BackgroundImageFix" result="effect1_dropShadow_133_331"/>
<feColorMatrix in="SourceAlpha" type="matrix" values="0 0 0 0 0 0 0 0 0 0 0 0 0 0 0 0 0 0 127 0" result="hardAlpha"/>
<feOffset/>
<feGaussianBlur stdDeviation="1.5"/>
<feColorMatrix type="matrix" values="0 0 0 0 0 0 0 0 0 0 0 0 0 0 0 0 0 0 0.084 0"/>
<feBlend mode="normal" in2="effect1_dropShadow_133_331" result="effect2_dropShadow_133_331"/>
<feBlend mode="normal" in="SourceGraphic" in2="effect2_dropShadow_133_331" result="shape"/>
</filter>
<filter id="filter2_dd_133_331" x="0" y="72" width="374" height="66" filterUnits="userSpaceOnUse" color-interpolation-filters="sRGB">
<feFlood flood-opacity="0" result="BackgroundImageFix"/>
<feColorMatrix in="SourceAlpha" type="matrix" values="0 0 0 0 0 0 0 0 0 0 0 0 0 0 0 0 0 0 127 0" result="hardAlpha"/>
<feOffset dy="2"/>
<feGaussianBlur stdDeviation="1.5"/>
<feColorMatrix type="matrix" values="0 0 0 0 0 0 0 0 0 0 0 0 0 0 0 0 0 0 0.168 0"/>
<feBlend mode="normal" in2="BackgroundImageFix" result="effect1_dropShadow_133_331"/>
<feColorMatrix in="SourceAlpha" type="matrix" values="0 0 0 0 0 0 0 0 0 0 0 0 0 0 0 0 0 0 127 0" result="hardAlpha"/>
<feOffset/>
<feGaussianBlur stdDeviation="1.5"/>
<feColorMatrix type="matrix" values="0 0 0 0 0 0 0 0 0 0 0 0 0 0 0 0 0 0 0.084 0"/>
<feBlend mode="normal" in2="effect1_dropShadow_133_331" result="effect2_dropShadow_133_331"/>
<feBlend mode="normal" in="SourceGraphic" in2="effect2_dropShadow_133_331" result="shape"/>
</filter>
<clipPath id="clip0_133_331">
<rect width="24" height="16" fill="white" transform="translate(72 168)"/>
</clipPath>
</defs>
</svg>
