<svg width="367" height="132" viewBox="0 0 367 132" fill="none" xmlns="http://www.w3.org/2000/svg">
<g clip-path="url(#clip0_32_109)">
<path d="M190.362 65.7479C198.112 62.9323 203.664 55.4843 203.664 46.7617C203.664 35.6293 194.62 26.5706 183.505 26.5706C172.39 26.5706 163.345 35.6293 163.345 46.7617C163.345 55.4843 168.898 62.9323 176.648 65.7479C161.243 68.9313 149.625 82.6225 149.625 98.9802V99.9314H217.385V98.9802C217.385 82.6225 205.767 68.9313 190.362 65.7479ZM165.248 46.7617C165.248 36.6788 173.438 28.473 183.508 28.473C193.578 28.473 201.768 36.6757 201.768 46.7617C201.768 56.8477 193.578 65.0504 183.508 65.0504C173.438 65.0504 165.248 56.8477 165.248 46.7617ZM151.54 98.0321C152.043 80.8088 166.191 66.9528 183.505 66.9528C200.818 66.9528 214.966 80.8088 215.47 98.0321H151.537H151.54Z" fill="white"/>
<path d="M367 65.0472H249.391C248.881 29.0945 219.525 0 183.505 0C147.484 0 118.131 29.0945 117.618 65.0472H0V66.9496H117.622C118.131 102.906 147.488 131.997 183.508 131.997C219.528 131.997 248.881 102.902 249.394 66.9496H367.003V65.0472H367ZM183.508 130.094C148.219 130.094 119.512 101.339 119.512 65.9984C119.512 30.6576 148.219 1.90243 183.505 1.90243C218.791 1.90243 247.501 30.6576 247.501 65.9984C247.501 101.339 218.791 130.094 183.505 130.094H183.508Z" fill="white"/>
</g>
<defs>
<clipPath id="clip0_32_109">
<rect width="367" height="132" fill="white"/>
</clipPath>
</defs>
</svg>
