<svg width="35" height="35" viewBox="0 0 35 35" fill="none" xmlns="http://www.w3.org/2000/svg">
<g id="Icon">
<rect id="Rectangle" x="0.373047" y="0.186554" width="34.6269" height="34.6269" rx="6" fill="#4BD763"/>
<path id="Shape" fill-rule="evenodd" clip-rule="evenodd" d="M26.1474 8.44865C23.9025 6.20189 20.9171 4.96394 17.7362 4.96267C11.1824 4.96267 5.84841 10.2946 5.84579 16.8485C5.84495 18.9435 6.39247 20.9884 7.43297 22.791L5.74609 28.9506L12.0494 27.2977C13.7861 28.2446 15.7414 28.7437 17.7315 28.7445H17.7364C24.2895 28.7445 29.624 23.4119 29.6267 16.858C29.628 13.6819 28.3923 10.6954 26.1474 8.44865ZM17.7364 26.737H17.7324C15.959 26.7363 14.2197 26.26 12.7023 25.3599L12.3414 25.1458L8.60094 26.1267L9.59935 22.4809L9.3643 22.1071C8.37502 20.5341 7.85254 18.716 7.85331 16.8493C7.85545 11.402 12.2889 6.97024 17.7402 6.97024C20.3799 6.97125 22.8613 8.00029 24.7272 9.86768C26.5931 11.7351 27.6201 14.2174 27.6191 16.8572C27.617 22.3049 23.1835 26.737 17.7364 26.737ZM21.1275 18.3713C21.3998 18.4704 22.8604 19.189 23.1576 19.3376C23.2155 19.3666 23.2697 19.3928 23.32 19.4171C23.5272 19.5172 23.6672 19.5848 23.727 19.6846C23.8013 19.8084 23.8013 20.4031 23.5537 21.0969C23.3061 21.7907 22.1191 22.4239 21.5483 22.5091C21.0364 22.5856 20.3887 22.6174 19.677 22.3915C19.2455 22.2546 18.6921 22.0718 17.9833 21.7658C15.1985 20.5638 13.3165 17.8658 12.9602 17.3551C12.9352 17.3192 12.9177 17.2941 12.908 17.2811L12.9056 17.2779C12.7484 17.0682 11.6948 15.663 11.6948 14.2087C11.6948 12.8406 12.3671 12.1235 12.6765 11.7934C12.6977 11.7708 12.7172 11.75 12.7347 11.731C13.007 11.4336 13.3289 11.3593 13.5269 11.3593C13.7249 11.3593 13.9232 11.3611 14.0963 11.3697C14.1176 11.3708 14.1398 11.3707 14.1628 11.3705C14.3359 11.3695 14.5519 11.3682 14.7648 11.8796C14.8468 12.0764 14.9667 12.3683 15.0932 12.6761C15.3488 13.2982 15.6312 13.9854 15.6808 14.0848C15.7551 14.2335 15.8047 14.4069 15.7056 14.6052C15.6908 14.6348 15.6772 14.6627 15.6641 14.6894C15.5896 14.8415 15.5349 14.9532 15.4085 15.1007C15.3589 15.1586 15.3077 15.221 15.2565 15.2833C15.1542 15.4079 15.0519 15.5324 14.9629 15.621C14.8142 15.7691 14.6593 15.9299 14.8326 16.2272C15.0059 16.5246 15.6022 17.4973 16.4854 18.2847C17.4348 19.1313 18.2599 19.4891 18.6782 19.6705C18.7599 19.7059 18.826 19.7346 18.8746 19.7589C19.1716 19.9076 19.3449 19.8828 19.5182 19.6845C19.6916 19.4863 20.261 18.8173 20.459 18.52C20.6571 18.2226 20.8551 18.2722 21.1275 18.3713Z" fill="white"/>
</g>
</svg>
